<svg width="918" height="543" viewBox="0 0 918 543" fill="none" xmlns="http://www.w3.org/2000/svg">
<path opacity="0.04" d="M697.92 -59.2624C699.218 -57.4509 700.494 -55.5358 701.792 -53.7243C478.578 -159.703 297.101 -150.815 286.645 -150.211L206.782 17.554C280.543 123.364 323.983 197.191 352.134 264.674C382.355 337.184 395.935 405.114 396.059 484.72C396.189 535.192 390.694 591.802 379.186 657.725C370.731 623.117 361.017 589.859 350.021 558.054C314.425 454.775 266.277 369.136 207.088 303.429C176.372 269.401 142.741 240.812 106.946 218.588C87.7837 206.706 67.925 196.515 47.5491 188.167L-0.00020634 401.404C18.5306 413.255 36.3777 428.649 53.4164 447.669C93.7616 492.432 127.537 553.776 153.927 630.107C165.755 664.38 175.868 701.097 184.133 739.903L556.83 823.01C588.344 689.797 604.16 580.697 604.032 482.501C603.831 374.612 584.603 278.571 543.558 180.165C532.099 152.823 518.94 124.993 503.431 95.7704C550.068 110.41 596.039 129.466 640.276 152.485C709.498 188.467 775.217 234.431 835.467 289.177L1008.45 198.163C997.729 89.2351 967.638 -10.0986 917.015 -103.248L599.254 -174.105C637.912 -136.567 670.658 -98.2816 697.92 -59.2624Z" fill="black"/>
</svg>
