<svg width="1173" height="206" viewBox="0 0 1173 206" fill="none" xmlns="http://www.w3.org/2000/svg">
<path d="M40.3855 0.000270903L93.009 159.366H95.1846L147.808 0.000270903H188.058L116.669 202.607H71.5244L2.99513e-05 0.000270903H40.3855ZM245.516 205.599C230.287 205.599 217.142 202.426 206.083 196.08C195.023 189.644 186.502 180.579 180.519 168.885C174.627 157.191 171.68 143.412 171.68 127.548C171.68 111.865 174.627 98.131 180.519 86.3463C186.411 74.4709 194.706 65.2244 205.403 58.6068C216.1 51.9892 228.7 48.6804 243.205 48.6804C252.542 48.6804 261.38 50.1761 269.72 53.1677C278.151 56.1592 285.585 60.7824 292.021 67.0374C298.548 73.2924 303.67 81.2698 307.386 90.9695C311.103 100.579 312.961 112.046 312.961 125.372V136.522H188.406V112.454H295.148L278.423 119.525C278.423 110.913 277.109 103.434 274.48 97.0885C271.851 90.6522 267.953 85.6211 262.786 81.995C257.618 78.3689 251.182 76.5559 243.477 76.5559C235.771 76.5559 229.199 78.3689 223.76 81.995C218.321 85.6211 214.196 90.5163 211.386 96.6806C208.576 102.754 207.171 109.553 207.171 117.077V133.803C207.171 143.049 208.757 150.981 211.93 157.599C215.193 164.126 219.726 169.112 225.528 172.556C231.42 176.001 238.264 177.723 246.06 177.723C251.137 177.723 255.76 176.998 259.93 175.548C264.191 174.097 267.817 171.922 270.808 169.021C273.89 166.029 276.247 162.358 277.879 158.007L311.33 161.95C309.154 170.743 305.12 178.449 299.228 185.066C293.426 191.593 285.947 196.67 276.791 200.296C267.726 203.831 257.301 205.599 245.516 205.599ZM324.052 202.607V50.5841H358.726V76.1479H360.358C363.077 67.264 367.837 60.4651 374.636 55.7512C381.434 50.9467 389.185 48.5444 397.888 48.5444C399.792 48.5444 401.967 48.6351 404.415 48.8164C406.953 48.9977 409.038 49.2243 410.67 49.4962V82.4029C409.129 81.859 406.726 81.4057 403.463 81.0431C400.199 80.6805 397.072 80.4992 394.08 80.4992C387.463 80.4992 381.57 81.9043 376.403 84.7145C371.236 87.5247 367.157 91.3775 364.165 96.2727C361.264 101.168 359.814 106.879 359.814 113.406V202.607H324.052ZM499.675 50.5841V78.3236H412.514V50.5841H499.675ZM433.862 14.4139H469.624V156.919C469.624 162.902 470.939 167.344 473.568 170.245C476.197 173.055 480.367 174.46 486.078 174.46C487.619 174.46 489.341 174.324 491.245 174.052C493.149 173.78 494.871 173.463 496.412 173.1L502.531 201.112C498.724 202.29 494.871 203.151 490.973 203.695C487.075 204.33 483.177 204.647 479.279 204.647C465.137 204.647 454.032 200.93 445.964 193.497C437.896 185.973 433.862 175.729 433.862 162.766V14.4139ZM511.038 202.607V50.5841H545.712V76.1479H547.344C550.063 67.264 554.823 60.4651 561.622 55.7512C568.421 50.9467 576.171 48.5444 584.874 48.5444C586.778 48.5444 588.953 48.6351 591.401 48.8164C593.939 48.9977 596.024 49.2243 597.656 49.4962V82.4029C596.115 81.859 593.712 81.4057 590.449 81.0431C587.185 80.6805 584.058 80.4992 581.066 80.4992C574.449 80.4992 568.556 81.9043 563.389 84.7145C558.222 87.5247 554.143 91.3775 551.151 96.2727C548.25 101.168 546.8 106.879 546.8 113.406V202.607H511.038ZM643.828 205.735C634.129 205.735 625.426 204.013 617.721 200.568C610.015 197.032 603.942 191.865 599.5 185.066C595.058 178.267 592.837 169.882 592.837 159.91C592.837 151.389 594.423 144.318 597.596 138.698C600.769 133.077 605.075 128.59 610.514 125.236C616.044 121.882 622.253 119.344 629.143 117.621C636.032 115.808 643.149 114.539 650.491 113.814C659.466 112.817 666.718 111.955 672.248 111.23C677.778 110.505 681.766 109.327 684.214 107.695C686.752 106.063 688.021 103.525 688.021 100.08V99.4002C688.021 92.0573 685.846 86.3463 681.494 82.2669C677.143 78.1876 670.797 76.1479 662.457 76.1479C653.664 76.1479 646.684 78.0516 641.517 81.859C636.44 85.6664 632.996 90.1537 631.183 95.3208L597.868 90.5616C600.497 81.3151 604.848 73.6097 610.922 67.4453C616.995 61.1904 624.384 56.5218 633.086 53.4396C641.879 50.2668 651.579 48.6804 662.185 48.6804C669.438 48.6804 676.69 49.5416 683.942 51.264C691.194 52.8957 697.857 55.7059 703.931 59.6946C710.004 63.6833 714.854 69.0317 718.48 75.74C722.106 82.4482 723.919 90.8335 723.919 100.896V202.607H689.517V181.667H688.429C686.254 185.837 683.171 189.78 679.183 193.497C675.285 197.123 670.389 200.069 664.497 202.335C658.695 204.602 651.806 205.735 643.828 205.735ZM652.939 179.355C660.191 179.355 666.446 177.95 671.704 175.14C676.962 172.239 681.041 168.432 683.942 163.718C686.843 158.913 688.293 153.701 688.293 148.08V130.267C687.115 131.174 685.211 132.035 682.582 132.851C679.953 133.576 676.962 134.256 673.608 134.89C670.254 135.525 666.945 136.069 663.681 136.522C660.508 136.975 657.744 137.338 655.387 137.61C650.038 138.335 645.234 139.559 640.973 141.281C636.803 142.913 633.494 145.179 631.047 148.08C628.599 150.981 627.375 154.743 627.375 159.366C627.375 165.984 629.777 170.97 634.582 174.324C639.387 177.678 645.506 179.355 652.939 179.355ZM838.897 138.834V50.5841H874.659V202.607H839.985V175.548H838.353C834.908 184.069 829.288 191.049 821.492 196.488C813.696 201.928 804.087 204.602 792.664 204.511C782.693 204.511 773.9 202.335 766.285 197.984C758.761 193.542 752.823 187.061 748.472 178.539C744.211 169.927 742.081 159.548 742.081 147.4V50.5841H777.843V141.961C777.843 151.48 780.472 159.094 785.73 164.806C791.078 170.517 798.058 173.327 806.67 173.236C811.928 173.236 817.005 171.967 821.9 169.429C826.886 166.891 830.965 163.083 834.138 158.007C837.311 152.93 838.897 146.539 838.897 138.834ZM960.13 205.599C944.9 205.599 931.755 202.426 920.696 196.08C909.636 189.644 901.115 180.579 895.132 168.885C889.24 157.191 886.293 143.412 886.293 127.548C886.293 111.865 889.24 98.131 895.132 86.3463C901.024 74.4709 909.319 65.2244 920.016 58.6068C930.713 51.9892 943.314 48.6804 957.818 48.6804C967.155 48.6804 975.994 50.1761 984.334 53.1677C992.764 56.1592 1000.2 60.7824 1006.63 67.0374C1013.16 73.2924 1018.28 81.2698 1022 90.9695C1025.72 100.579 1027.57 112.046 1027.57 125.372V136.522H903.019V112.454H1009.76L993.036 119.525C993.036 110.913 991.722 103.434 989.093 97.0885C986.464 90.6522 982.566 85.6211 977.399 81.995C972.232 78.3689 965.795 76.5559 958.09 76.5559C950.384 76.5559 943.812 78.3689 938.373 81.995C932.934 85.6211 928.809 90.5163 925.999 96.6806C923.189 102.754 921.784 109.553 921.784 117.077V133.803C921.784 143.049 923.37 150.981 926.543 157.599C929.806 164.126 934.339 169.112 940.141 172.556C946.033 176.001 952.877 177.723 960.673 177.723C965.75 177.723 970.373 176.998 974.543 175.548C978.804 174.097 982.43 171.922 985.421 169.021C988.504 166.029 990.861 162.358 992.492 158.007L1025.94 161.95C1023.77 170.743 1019.73 178.449 1013.84 185.066C1008.04 191.593 1000.56 196.67 991.404 200.296C982.339 203.831 971.914 205.599 960.13 205.599ZM1074.43 113.678V202.607H1038.66V50.5841H1073.75V76.5559H1075.51C1078.96 68.0346 1084.35 61.281 1091.7 56.2951C1099.13 51.2186 1108.56 48.6804 1119.98 48.6804C1130.5 48.6804 1139.65 50.9014 1147.45 55.3433C1155.24 59.7852 1161.27 66.3122 1165.53 74.9241C1169.88 83.4454 1172.06 93.7797 1172.06 105.927V202.607H1136.3V111.502C1136.3 101.349 1133.67 93.4171 1128.41 87.7061C1123.15 81.9043 1115.9 79.0035 1106.65 79.0035C1100.4 79.0035 1094.82 80.3632 1089.93 83.0828C1085.12 85.8024 1081.32 89.7457 1078.51 94.9129C1075.79 99.9894 1074.43 106.244 1074.43 113.678Z" fill="#4F7BB7" fill-opacity="0.2"/>
</svg>
