<svg width="11" height="11" viewBox="0 0 11 11" fill="none" xmlns="http://www.w3.org/2000/svg">
<path d="M4.76837e-05 2.85586C4.76837e-05 6.34826 4.63138 10.9743 8.11974 10.9743C8.88325 10.9743 9.59646 10.6863 10.1222 10.1606L10.5794 9.63496C11.1098 9.1047 11.1098 8.20874 10.5566 7.65562C10.5428 7.64191 9.44102 6.79624 9.44102 6.79624C8.89239 6.27512 8.0283 6.27512 7.48425 6.79624C7.07316 7.12562 6.50655 7.215 6.05371 6.94588C5.21644 6.4483 4.54907 5.77483 4.03723 4.9123C3.76973 4.46151 3.85265 3.89707 4.17876 3.48669C4.70453 2.94271 4.70453 2.07418 4.17876 1.53021C4.17876 1.53021 3.33296 0.42855 3.31925 0.414837C2.76605 -0.138279 1.86995 -0.138279 1.31675 0.414837L0.836704 0.830816C0.288076 1.37479 4.76837e-05 2.0879 4.76837e-05 2.85129V2.85586Z" fill="#4F645D"/>
</svg>
