<svg width="170" height="39" viewBox="0 0 170 39" fill="none" xmlns="http://www.w3.org/2000/svg">
<path d="M102.654 34.4614C102.368 34.4614 102.092 34.498 101.822 34.5728C101.552 34.6476 101.321 34.752 101.128 34.8877L101.497 35.6046C101.624 35.5037 101.779 35.4236 101.96 35.3645C102.141 35.3053 102.327 35.2757 102.515 35.2757C102.786 35.2757 102.99 35.3366 103.125 35.4567C103.261 35.5768 103.329 35.749 103.329 35.9735H102.515C101.998 35.9735 101.615 36.0674 101.368 36.2554C101.121 36.4433 100.996 36.7025 100.996 37.0314C100.996 37.2367 101.048 37.4212 101.154 37.583C101.26 37.7448 101.411 37.8718 101.612 37.964C101.812 38.0563 102.047 38.1015 102.318 38.1015C102.843 38.1015 103.204 37.9379 103.397 37.6091V38.0493H104.357V36.0309C104.357 35.5054 104.211 35.1122 103.917 34.8512C103.623 34.5919 103.202 34.4614 102.654 34.4614ZM103.331 36.934C103.273 37.0923 103.178 37.2106 103.042 37.2924C102.906 37.3742 102.751 37.4142 102.576 37.4142C102.396 37.4142 102.254 37.3759 102.151 37.2994C102.048 37.2228 101.996 37.1184 101.996 36.9879C101.996 36.7112 102.207 36.5738 102.628 36.5738H103.331V36.934Z" fill="#24639C"/>
<path d="M107.967 34.8895C107.713 34.6041 107.359 34.4614 106.909 34.4614C106.576 34.4614 106.274 34.5362 106.004 34.6841C105.734 34.832 105.524 35.0461 105.371 35.321C105.217 35.5976 105.141 35.9178 105.141 36.2815C105.141 36.6451 105.217 36.9653 105.371 37.2419C105.524 37.5186 105.736 37.7309 106.004 37.8805C106.272 38.0302 106.575 38.1032 106.909 38.1032C107.391 38.1032 107.76 37.9501 108.014 37.6439V38.051H108.993V33.1738H107.967V34.8895ZM107.73 36.9966C107.559 37.1741 107.344 37.2628 107.086 37.2628C106.823 37.2628 106.606 37.1741 106.435 36.9966C106.265 36.8191 106.18 36.5807 106.18 36.2832C106.18 35.9857 106.265 35.7473 106.435 35.5698C106.606 35.3923 106.823 35.3036 107.086 35.3036C107.345 35.3036 107.559 35.3923 107.73 35.5698C107.901 35.7473 107.986 35.9857 107.986 36.2832C107.986 36.5807 107.901 36.8191 107.73 36.9966Z" fill="#24639C"/>
<path d="M114.534 34.4614C114.271 34.4614 114.029 34.5119 113.808 34.6128C113.587 34.7137 113.404 34.8564 113.258 35.0408C113.136 34.8529 112.973 34.7085 112.771 34.6111C112.569 34.5119 112.343 34.4632 112.094 34.4632C111.866 34.4632 111.657 34.5032 111.466 34.5815C111.276 34.6598 111.115 34.7746 110.982 34.9225V34.5154H110.003V38.0528H111.028V36.278C111.028 35.9717 111.097 35.7403 111.238 35.5837C111.379 35.4289 111.567 35.3506 111.804 35.3506C112.251 35.3506 112.473 35.629 112.473 36.1858V38.0528H113.5V36.278C113.5 35.9717 113.57 35.7403 113.711 35.5837C113.852 35.4289 114.041 35.3506 114.283 35.3506C114.497 35.3506 114.662 35.4202 114.779 35.5576C114.896 35.6951 114.953 35.9056 114.953 36.1858V38.0528H115.978V36.0274C115.978 35.5054 115.847 35.1139 115.586 34.8547C115.329 34.5919 114.977 34.4614 114.534 34.4614Z" fill="#24639C"/>
<path d="M117.479 32.8784C117.291 32.8784 117.137 32.9341 117.018 33.042C116.9 33.1516 116.841 33.2873 116.841 33.4491C116.841 33.611 116.9 33.7467 117.018 33.8563C117.137 33.9659 117.29 34.0199 117.479 34.0199C117.667 34.0199 117.82 33.9642 117.939 33.8528C118.057 33.7415 118.116 33.6005 118.116 33.4283C118.116 33.2699 118.057 33.1394 117.939 33.0333C117.82 32.9306 117.667 32.8784 117.479 32.8784Z" fill="#24639C"/>
<path d="M117.991 34.5137H116.966V38.0511H117.991V34.5137Z" fill="#24639C"/>
<path d="M121.186 36.0764C121.001 36.0224 120.764 35.9702 120.476 35.9215C120.216 35.8815 120.028 35.8397 119.91 35.7962C119.792 35.7527 119.733 35.6762 119.733 35.5665C119.733 35.4708 119.787 35.3908 119.896 35.3299C120.006 35.269 120.169 35.2377 120.389 35.2377C120.757 35.2377 121.097 35.3247 121.408 35.5004L121.749 34.7714C121.587 34.6757 121.382 34.5991 121.135 34.5452C120.888 34.4912 120.639 34.4634 120.389 34.4634C120.051 34.4634 119.759 34.5121 119.512 34.6078C119.265 34.7035 119.075 34.8392 118.946 35.0115C118.817 35.1837 118.753 35.3821 118.753 35.6066C118.753 35.8745 118.823 36.0798 118.96 36.2243C119.098 36.3687 119.261 36.4696 119.449 36.527C119.637 36.5844 119.877 36.6349 120.166 36.6784C120.411 36.7097 120.594 36.7463 120.712 36.7898C120.831 36.8333 120.89 36.9063 120.89 37.0073C120.89 37.223 120.672 37.3292 120.239 37.3292C120.025 37.3292 119.806 37.2978 119.581 37.2335C119.359 37.1708 119.167 37.0873 119.009 36.9864L118.666 37.7224C118.833 37.832 119.056 37.9225 119.336 37.9956C119.616 38.0687 119.903 38.1035 120.197 38.1035C120.543 38.1035 120.843 38.0565 121.095 37.9625C121.347 37.8686 121.539 37.7363 121.671 37.5641C121.803 37.3935 121.868 37.1987 121.868 36.9794C121.868 36.7202 121.8 36.5201 121.664 36.3739C121.53 36.2312 121.37 36.1303 121.186 36.0764Z" fill="#24639C"/>
<path d="M124.741 36.0764C124.557 36.0224 124.32 35.9702 124.032 35.9215C123.772 35.8815 123.584 35.8397 123.466 35.7962C123.348 35.7527 123.289 35.6762 123.289 35.5665C123.289 35.4708 123.342 35.3908 123.452 35.3299C123.562 35.269 123.725 35.2377 123.945 35.2377C124.313 35.2377 124.653 35.3247 124.964 35.5004L125.305 34.7714C125.143 34.6757 124.938 34.5991 124.691 34.5452C124.444 34.4912 124.195 34.4634 123.945 34.4634C123.607 34.4634 123.315 34.5121 123.068 34.6078C122.82 34.7035 122.631 34.8392 122.502 35.0115C122.373 35.1837 122.309 35.3821 122.309 35.6066C122.309 35.8745 122.379 36.0798 122.516 36.2243C122.653 36.3687 122.817 36.4696 123.005 36.527C123.193 36.5844 123.433 36.6349 123.722 36.6784C123.967 36.7097 124.15 36.7463 124.268 36.7898C124.386 36.8333 124.446 36.9063 124.446 37.0073C124.446 37.223 124.228 37.3292 123.795 37.3292C123.581 37.3292 123.362 37.2978 123.137 37.2335C122.914 37.1708 122.723 37.0873 122.565 36.9864L122.222 37.7224C122.389 37.832 122.612 37.9225 122.892 37.9956C123.172 38.0687 123.459 38.1035 123.753 38.1035C124.099 38.1035 124.399 38.0565 124.651 37.9625C124.903 37.8686 125.095 37.7363 125.227 37.5641C125.359 37.3935 125.424 37.1987 125.424 36.9794C125.424 36.7202 125.356 36.5201 125.22 36.3739C125.086 36.2312 124.926 36.1303 124.741 36.0764Z" fill="#24639C"/>
<path d="M126.637 32.8784C126.449 32.8784 126.294 32.9341 126.176 33.042C126.057 33.1516 125.998 33.2873 125.998 33.4491C125.998 33.611 126.057 33.7467 126.176 33.8563C126.294 33.9659 126.447 34.0199 126.637 34.0199C126.825 34.0199 126.978 33.9642 127.096 33.8528C127.215 33.7415 127.274 33.6005 127.274 33.4283C127.274 33.2699 127.215 33.1394 127.096 33.0333C126.978 32.9306 126.825 32.8784 126.637 32.8784Z" fill="#24639C"/>
<path d="M127.148 34.5137H126.124V38.0511H127.148V34.5137Z" fill="#24639C"/>
<path d="M130.849 34.6946C130.555 34.5397 130.223 34.4614 129.85 34.4614C129.478 34.4614 129.144 34.5397 128.848 34.6946C128.552 34.8494 128.321 35.0652 128.154 35.3419C127.987 35.6185 127.903 35.9317 127.903 36.2815C127.903 36.6329 127.987 36.9461 128.154 37.2211C128.321 37.4977 128.551 37.7135 128.848 37.8683C129.144 38.0232 129.478 38.1015 129.85 38.1015C130.223 38.1015 130.555 38.0232 130.849 37.8683C131.143 37.7135 131.373 37.496 131.54 37.2211C131.707 36.9444 131.79 36.6312 131.79 36.2815C131.79 35.9317 131.707 35.6168 131.54 35.3419C131.373 35.0669 131.143 34.8512 130.849 34.6946ZM130.498 36.9966C130.329 37.1741 130.113 37.2628 129.85 37.2628C129.588 37.2628 129.37 37.1741 129.2 36.9966C129.029 36.8191 128.944 36.5807 128.944 36.2832C128.944 35.9857 129.029 35.7473 129.2 35.5698C129.37 35.3923 129.588 35.3036 129.85 35.3036C130.113 35.3036 130.329 35.3923 130.498 35.5698C130.666 35.7473 130.75 35.9857 130.75 36.2832C130.752 36.5807 130.666 36.8191 130.498 36.9966Z" fill="#24639C"/>
<path d="M134.69 34.4614C134.448 34.4614 134.227 34.5014 134.025 34.5832C133.823 34.665 133.654 34.7798 133.519 34.9277V34.5136H132.539V38.051H133.564V36.3023C133.564 35.9874 133.64 35.749 133.794 35.5889C133.947 35.4289 134.154 35.3488 134.411 35.3488C134.643 35.3488 134.82 35.4184 134.944 35.5559C135.066 35.6933 135.128 35.9039 135.128 36.184V38.051H136.155V36.0257C136.155 35.5089 136.019 35.1191 135.751 34.8547C135.483 34.5902 135.128 34.4614 134.69 34.4614Z" fill="#24639C"/>
<path d="M140.099 33.1738H139.074V38.051H140.099V33.1738Z" fill="#24639C"/>
<path d="M142.546 34.4614C142.261 34.4614 141.984 34.498 141.714 34.5728C141.444 34.6476 141.213 34.752 141.02 34.8877L141.389 35.6046C141.516 35.5037 141.671 35.4236 141.852 35.3645C142.033 35.3053 142.219 35.2757 142.407 35.2757C142.678 35.2757 142.882 35.3366 143.017 35.4567C143.153 35.5768 143.221 35.749 143.221 35.9735H142.407C141.89 35.9735 141.507 36.0674 141.26 36.2554C141.013 36.4433 140.888 36.7025 140.888 37.0314C140.888 37.2367 140.94 37.4212 141.046 37.583C141.152 37.7448 141.304 37.8718 141.504 37.964C141.704 38.0563 141.939 38.1015 142.21 38.1015C142.736 38.1015 143.096 37.9379 143.289 37.6091V38.0493H144.249V36.0309C144.249 35.5054 144.103 35.1122 143.809 34.8512C143.513 34.5919 143.092 34.4614 142.546 34.4614ZM143.223 36.934C143.165 37.0923 143.07 37.2106 142.934 37.2924C142.798 37.3742 142.643 37.4142 142.468 37.4142C142.288 37.4142 142.146 37.3759 142.043 37.2994C141.94 37.2228 141.888 37.1184 141.888 36.9879C141.888 36.7112 142.099 36.5738 142.52 36.5738H143.223V36.934Z" fill="#24639C"/>
<path d="M148.229 34.6896C147.959 34.5382 147.66 34.4634 147.331 34.4634C146.88 34.4634 146.524 34.6061 146.266 34.8914V33.1758H145.241V38.053H146.221V37.6458C146.475 37.9521 146.845 38.1052 147.333 38.1052C147.662 38.1052 147.961 38.0304 148.231 37.879C148.5 37.7276 148.711 37.5153 148.866 37.2404C149.019 36.9672 149.095 36.6471 149.095 36.2834C149.095 35.9198 149.019 35.6013 148.866 35.3264C148.709 35.0532 148.498 34.8392 148.229 34.6896ZM147.801 36.9968C147.632 37.1743 147.416 37.263 147.153 37.263C146.891 37.263 146.675 37.1743 146.506 36.9968C146.337 36.8193 146.252 36.581 146.252 36.2834C146.252 35.9859 146.336 35.7475 146.506 35.57C146.675 35.3925 146.891 35.3038 147.153 35.3038C147.416 35.3038 147.632 35.3925 147.801 35.57C147.97 35.7475 148.055 35.9859 148.055 36.2834C148.055 36.581 147.97 36.8193 147.801 36.9968Z" fill="#24639C"/>
<path d="M150.637 37.0016C150.513 36.8851 150.363 36.8276 150.183 36.8276C150.003 36.8276 149.852 36.8851 149.728 37.0016C149.605 37.1182 149.544 37.2696 149.544 37.4593C149.544 37.6437 149.605 37.7968 149.728 37.9186C149.852 38.0422 150.002 38.1031 150.183 38.1031C150.362 38.1031 150.513 38.0422 150.637 37.9186C150.76 37.7968 150.821 37.642 150.821 37.4593C150.821 37.2713 150.76 37.1182 150.637 37.0016Z" fill="#24639C"/>
<path d="M16.7719 16.0814C15.9349 14.8547 14.8526 13.8803 13.5302 13.1582C12.2061 12.4361 10.7619 12.0742 9.1959 12.0742C7.5081 12.0742 5.96646 12.4866 4.57098 13.3131C3.1755 14.1396 2.06364 15.2497 1.23888 16.6452C0.41238 18.0407 0 19.5841 0 21.2719C0 22.9475 0.41238 24.4839 1.23888 25.8794C2.06364 27.2749 3.1755 28.3867 4.57098 29.2115C5.96646 30.038 7.5081 30.4504 9.1959 30.4504C10.3495 30.4504 11.4422 30.2503 12.4741 29.8501C13.5059 29.4499 14.7743 28.5816 16.2794 27.2453L13.2379 24.1672C11.7206 25.4548 10.3721 26.0969 9.19416 26.0969C7.96746 26.0969 6.91128 25.7019 6.02562 24.9137C5.13996 24.1255 4.68408 23.633 4.65972 23.4382H18.2804L18.3535 21.2719L18.317 20.3062C18.1256 18.7158 17.6088 17.3081 16.7719 16.0814ZM4.64232 19.0864C4.67886 18.8915 5.13996 18.4026 6.02736 17.6196C6.91302 16.8366 7.9692 16.4451 9.1959 16.4451C10.3982 16.4451 11.4457 16.8366 12.3366 17.6196C13.2292 18.4026 13.6938 18.8915 13.7303 19.0864H4.64232Z" fill="#24639C"/>
<path d="M34.8567 13.4966C34.674 13.4114 34.4443 13.3017 34.1641 13.1695C32.9618 12.5866 31.669 12.2943 30.2857 12.2943C28.6344 12.2943 27.1328 12.6945 25.7791 13.4966C24.4254 14.2988 23.3448 15.3793 22.5375 16.7382C21.7301 18.0989 21.3264 19.5971 21.3264 21.2361C21.3264 22.8874 21.7301 24.389 22.5375 25.7427C23.3448 27.0965 24.4254 28.177 25.7791 28.9844C27.1328 29.7917 28.6344 30.1954 30.2857 30.1954C31.6707 30.1954 32.9601 29.9013 34.1554 29.3115C35.3508 28.7234 36.3618 27.9247 37.1883 26.9172C38.5594 25.2782 39.2449 23.385 39.2449 21.2361V4.42773H34.8567V13.4966ZM34.2372 23.5399C33.8248 24.2376 33.2715 24.7927 32.5807 25.2068C31.8882 25.6192 31.1226 25.8263 30.2857 25.8263C29.4366 25.8263 28.6657 25.6209 27.9732 25.2068C27.2807 24.7944 26.7291 24.2394 26.315 23.5399C25.9026 22.8422 25.6956 22.0731 25.6956 21.2361C25.6956 20.387 25.9026 19.6179 26.315 18.9324C26.7274 18.2468 27.2807 17.6935 27.9732 17.2742C28.6657 16.8548 29.4366 16.646 30.2857 16.646C31.1244 16.646 31.8882 16.8548 32.5807 17.2742C33.2715 17.6935 33.8248 18.2468 34.2372 18.9324C34.6496 19.6179 34.8567 20.3853 34.8567 21.2361C34.8567 22.0731 34.6496 22.8404 34.2372 23.5399Z" fill="#24639C"/>
<path d="M59.023 12.2935H54.6695V21.9087C54.6695 22.8796 54.3424 23.7479 53.6864 24.5135C53.3349 24.9137 52.9086 25.2304 52.4127 25.46C51.9151 25.6897 51.374 25.8063 50.7928 25.8063C49.7366 25.8063 48.8283 25.427 48.0697 24.6683C47.3111 23.9097 46.9317 22.991 46.9317 21.9087V12.2935H42.5435V21.9087C42.5435 23.9967 43.229 25.8115 44.6001 27.3532C45.3657 28.2266 46.2827 28.9139 47.3493 29.4116C48.4177 29.9092 49.5661 30.158 50.7911 30.158C52.0282 30.158 53.0548 29.9632 53.8691 29.5751C54.1962 29.4168 54.4642 29.2967 54.6695 29.2115C54.6573 30.0014 54.452 30.7235 54.0501 31.3795C53.6377 32.0581 53.0844 32.6062 52.3936 33.0186C51.7011 33.431 50.9372 33.638 50.0985 33.638C48.9206 33.638 47.5982 32.9647 46.1279 31.6162L43.0324 34.6942C44.5131 36.0775 45.7694 36.9771 46.8012 37.3895C47.8331 37.8019 48.9327 38.0089 50.0968 38.0089C52.063 38.0089 53.8413 37.393 55.4334 36.161C57.0237 34.9291 58.1095 33.3718 58.6924 31.4891C58.9221 30.7235 59.0387 29.9405 59.0387 29.1401L59.023 12.2935Z" fill="#24639C"/>
<path d="M145.87 13.1309C145.687 13.0456 145.457 12.936 145.177 12.8038C143.975 12.2209 142.682 11.9286 141.299 11.9286C139.647 11.9286 138.144 12.3288 136.79 13.1309C135.437 13.933 134.356 15.0136 133.549 16.3725C132.741 17.7332 132.338 19.2313 132.338 20.8704C132.338 22.5217 132.741 24.0233 133.549 25.377C134.356 26.7307 135.437 27.8113 136.79 28.6186C138.144 29.426 139.647 29.8297 141.299 29.8297C142.682 29.8297 143.971 29.5356 145.168 28.9457C146.364 28.3576 147.375 27.559 148.201 26.5515C149.574 24.9124 150.26 23.0193 150.26 20.8704V4.06201H145.871V13.1309H145.87ZM145.25 23.1742C144.838 23.8719 144.286 24.427 143.594 24.8411C142.901 25.2535 142.137 25.4605 141.299 25.4605C140.45 25.4605 139.677 25.2552 138.986 24.8411C138.294 24.4287 137.742 23.8736 137.33 23.1742C136.917 22.4764 136.71 21.7073 136.71 20.8704C136.71 20.0213 136.917 19.2522 137.33 18.5667C137.742 17.8811 138.295 17.3278 138.986 16.9084C139.679 16.4891 140.45 16.2803 141.299 16.2803C142.136 16.2803 142.901 16.4891 143.594 16.9084C144.286 17.3278 144.838 17.8811 145.25 18.5667C145.663 19.2522 145.87 20.0195 145.87 20.8704C145.87 21.7073 145.663 22.4764 145.25 23.1742Z" fill="#24639C"/>
<path d="M169.212 12.2935H164.861V21.9087C164.861 22.8796 164.533 23.7479 163.877 24.5135C163.524 24.9137 163.101 25.2304 162.602 25.46C162.104 25.6897 161.563 25.8063 160.98 25.8063C159.924 25.8063 159.016 25.427 158.257 24.6683C157.499 23.9097 157.119 22.991 157.119 21.9087V12.2935H152.731V21.9087C152.731 23.9967 153.417 25.8115 154.789 27.3532C155.553 28.2266 156.47 28.9139 157.539 29.4116C158.607 29.9092 159.754 30.158 160.98 30.158C162.219 30.158 163.244 29.9632 164.058 29.5751C164.385 29.4168 164.653 29.2967 164.861 29.2115C164.848 30.0014 164.641 30.7235 164.241 31.3795C163.829 32.0581 163.275 32.6062 162.585 33.0186C161.892 33.431 161.128 33.638 160.29 33.638C159.112 33.638 157.787 32.9647 156.319 31.6162L153.223 34.6942C154.704 36.0775 155.96 36.9771 156.994 37.3895C158.026 37.8019 159.124 38.0089 160.29 38.0089C162.256 38.0089 164.034 37.393 165.624 36.161C167.215 34.9291 168.3 33.3718 168.883 31.4891C169.113 30.7235 169.23 29.9405 169.23 29.1401L169.212 12.2935Z" fill="#24639C"/>
<path d="M125.823 21.817C125.823 22.8123 125.496 23.6683 124.84 24.3852C124.476 24.8098 124.045 25.1386 123.547 25.3683C123.049 25.5997 122.515 25.7146 121.944 25.7146C120.876 25.7146 119.962 25.3318 119.204 24.5679C118.445 23.8023 118.066 22.8871 118.066 21.8187V12.1843H100.659V4.06201H96.288V12.1843H93.21V16.5552H96.288V20.8722C96.288 23.0332 96.9684 24.9264 98.3273 26.5533C99.1521 27.5607 100.163 28.3594 101.36 28.9475C102.556 29.5374 103.852 29.8314 105.249 29.8314C106.512 29.8314 107.699 29.5861 108.809 29.0937C109.921 28.6012 111.179 27.6147 112.588 26.1339L109.51 23.0385C108.466 24.1434 107.659 24.8237 107.088 25.0777C106.517 25.3335 105.905 25.4605 105.249 25.4605C104.4 25.4605 103.629 25.2552 102.937 24.8411C102.244 24.4287 101.692 23.8754 101.28 23.1829C100.868 22.4904 100.661 21.7195 100.661 20.8704V16.5535L113.698 16.5343V21.817C113.698 23.905 114.384 25.7198 115.755 27.2614C116.521 28.1349 117.434 28.8222 118.496 29.3181C119.557 29.8158 120.707 30.0646 121.946 30.0646C123.173 30.0646 124.192 29.8697 125.005 29.4817C125.344 29.3233 125.617 29.1963 125.825 29.0989V30.0646H130.178V12.1843H125.825V21.817H125.823Z" fill="#24639C"/>
<path d="M95.317 12.4367L83.974 10.7889L78.9001 0.50895C78.5661 -0.16965 77.5986 -0.16965 77.2645 0.50895L72.1924 10.7871L60.8494 12.4349C60.1012 12.5428 59.8019 13.4633 60.3448 13.9905L68.5524 21.991L66.614 33.2888C66.487 34.0335 67.2682 34.6025 67.9364 34.251L78.0823 28.9179L88.2283 34.251C88.8982 34.6025 89.6794 34.0353 89.5507 33.2888L87.6123 21.991L95.8199 13.9905C96.3628 13.4633 96.0635 12.5445 95.317 12.4367ZM84.2854 25.3057C83.4485 26.1426 82.4811 26.7847 81.3883 27.2336C80.2956 27.6825 79.1664 27.907 78.0006 27.907C76.6642 27.907 75.4167 27.6338 74.2561 27.0892C73.0955 26.5428 71.8305 25.4953 70.4577 23.9433L73.5723 20.8339C74.6163 22.0589 75.4393 22.8158 76.0413 23.1063C76.6416 23.3969 77.2941 23.5431 77.9988 23.5431C78.9576 23.5431 79.8328 23.2647 80.6227 22.7061C80.8663 22.5478 81.0456 22.4034 81.1604 22.2694C81.2752 22.1354 81.3327 22.0206 81.3327 21.9249C81.3327 21.7909 81.2631 21.6517 81.1239 21.5055C80.9847 21.3594 80.748 21.2115 80.4139 21.0601C80.0799 20.9087 79.7545 20.7956 79.4395 20.7243C79.0132 20.6268 78.5434 20.5694 78.0284 20.552C77.5134 20.5346 76.9566 20.4633 76.3615 20.3432C75.3523 20.1257 74.397 19.6942 73.4922 19.0521C72.5874 18.4101 71.9645 17.507 71.6252 16.343C71.5278 15.9671 71.479 15.5861 71.479 15.198C71.479 14.6151 71.5765 14.0583 71.7696 13.5259C72.1211 12.6281 72.6535 11.9199 73.3635 11.3979C74.0751 10.8759 74.8355 10.5192 75.6498 10.3243C76.4624 10.1312 77.2471 10.0337 77.9988 10.0337C79.1037 10.0337 80.1547 10.2216 81.15 10.5975C82.1452 10.9733 83.3963 11.8155 84.9031 13.1257L81.8251 16.1811C80.367 14.9927 79.0915 14.3994 77.9988 14.3994C77.6578 14.3994 77.2889 14.4429 76.887 14.5264C76.4868 14.6117 76.2136 14.7108 76.0674 14.8257C75.923 14.9405 75.8499 15.0658 75.8499 15.198C75.8499 15.3564 75.9108 15.4764 76.0326 15.5617C76.6764 15.9863 77.4716 16.2038 78.4182 16.2159C79.9354 16.2768 81.2961 16.6214 82.4985 17.253C83.2032 17.6045 83.833 18.0655 84.3933 18.6345C85.2668 19.5689 85.7053 20.6651 85.7053 21.9266C85.7053 23.2438 85.232 24.3713 84.2854 25.3057Z" fill="#FF7D6A"/>
</svg>
