<svg width="37" height="57" viewBox="0 0 37 57" fill="none" xmlns="http://www.w3.org/2000/svg">
<path d="M35.9973 54.3402C36.0964 54.7098 35.877 55.0897 35.5074 55.1887L29.4845 56.8026C29.1149 56.9017 28.735 56.6823 28.636 56.3127C28.5369 55.9431 28.7563 55.5632 29.1259 55.4642L34.4796 54.0296L33.045 48.6759C32.946 48.3063 33.1653 47.9264 33.5349 47.8274C33.9045 47.7283 34.2844 47.9477 34.3835 48.3173L35.9973 54.3402ZM0.000117328 0.693787C0.000117544 0.31115 0.310306 0.000965643 0.692942 0.000965858C1.07558 0.000966074 1.38576 0.311151 1.38576 0.693787L0.69294 0.693789L0.000117328 0.693787ZM0.692941 2.52282L1.38576 2.52282L0.692941 2.52282ZM28.4061 50.5232L28.0597 51.1232L28.4061 50.5232ZM33.2512 54.1204C32.9198 53.9291 32.8063 53.5054 32.9976 53.174C33.1889 52.8427 33.6127 52.7291 33.944 52.9204L33.5976 53.5204L33.2512 54.1204ZM30.483 50.9222C30.8144 51.1136 30.9279 51.5373 30.7366 51.8687C30.5453 52.2 30.1216 52.3136 29.7902 52.1223L30.1366 51.5222L30.483 50.9222ZM26.7965 50.3717C26.4702 50.1718 26.3678 49.7453 26.5677 49.419C26.7676 49.0927 27.1941 48.9903 27.5204 49.1902L27.1584 49.781L26.7965 50.3717ZM25.1168 47.6297C25.4322 47.8464 25.5122 48.2777 25.2955 48.5931C25.0788 48.9085 24.6475 48.9885 24.3322 48.7718L24.7245 48.2008L25.1168 47.6297ZM21.9554 47.0456C21.6518 46.8127 21.5945 46.3778 21.8274 46.0742C22.0603 45.7706 22.4952 45.7133 22.7988 45.9462L22.3771 46.4959L21.9554 47.0456ZM20.5714 44.1428C20.8623 44.3913 20.8968 44.8286 20.6483 45.1196C20.3998 45.4105 19.9625 45.445 19.6715 45.1965L20.1215 44.6697L20.5714 44.1428ZM17.4883 43.2308C17.2108 42.9674 17.1993 42.5289 17.4627 42.2514C17.7261 41.9738 18.1646 41.9623 18.4422 42.2257L17.9652 42.7283L17.4883 43.2308ZM16.416 40.1993C16.6794 40.4769 16.6678 40.9154 16.3903 41.1788C16.1127 41.4422 15.6742 41.4306 15.4108 41.1531L15.9134 40.6762L16.416 40.1993ZM13.4451 38.9695C13.1966 38.6785 13.2311 38.2412 13.5221 37.9927C13.8131 37.7442 14.2504 37.7787 14.4989 38.0697L13.972 38.5196L13.4451 38.9695ZM12.6959 35.8427C12.9288 36.1463 12.8715 36.5812 12.5679 36.8141C12.2643 37.047 11.8294 36.9897 11.5965 36.6861L12.1462 36.2644L12.6959 35.8427ZM9.86977 34.3089C9.65307 33.9936 9.73304 33.5622 10.0484 33.3455C10.3638 33.1288 10.7951 33.2088 11.0118 33.5242L10.4408 33.9165L9.86977 34.3089ZM9.45128 31.1209C9.65119 31.4472 9.54878 31.8737 9.22252 32.0736C8.89626 32.2735 8.46972 32.1711 8.2698 31.8449L8.86054 31.4829L9.45128 31.1209ZM6.80079 29.3005C6.6182 28.9642 6.74278 28.5436 7.07904 28.361C7.4153 28.1784 7.83591 28.303 8.0185 28.6393L7.40965 28.9699L6.80079 29.3005ZM6.71745 26.0862C6.8822 26.4316 6.73581 26.8451 6.39047 27.0098C6.04512 27.1746 5.63159 27.0282 5.46683 26.6829L6.09214 26.3845L6.71745 26.0862ZM4.2715 23.9989C4.12503 23.6454 4.29285 23.2401 4.64634 23.0936C4.99983 22.9471 5.40513 23.1149 5.5516 23.4684L4.91155 23.7336L4.2715 23.9989ZM4.52443 20.7936C4.65221 21.1542 4.4634 21.5502 4.10273 21.678C3.74206 21.8057 3.3461 21.6169 3.21832 21.2563L3.87138 21.0249L4.52443 20.7936ZM2.31011 18.4621C2.2014 18.0952 2.41068 17.7097 2.77755 17.601C3.14441 17.4923 3.52995 17.7016 3.63866 18.0685L2.97438 18.2653L2.31011 18.4621ZM2.89682 15.3005C2.98616 15.6726 2.75696 16.0466 2.3849 16.136C2.01283 16.2253 1.6388 15.9961 1.54947 15.6241L2.22315 15.4623L2.89682 15.3005ZM0.938718 12.7505C0.869011 12.3743 1.11749 12.0128 1.49373 11.9431C1.86996 11.8733 2.23147 12.1218 2.30118 12.4981L1.61995 12.6243L0.938718 12.7505ZM1.85312 9.66737C1.90301 10.0467 1.63592 10.3947 1.25655 10.4446C0.87718 10.4945 0.529195 10.2274 0.479304 9.84805L1.16621 9.75771L1.85312 9.66737ZM0.172691 6.92663C0.14273 6.54517 0.427673 6.21165 0.809132 6.18168C1.1906 6.15172 1.52412 6.43667 1.55408 6.81813L0.863386 6.87238L0.172691 6.92663ZM1.40447 3.95635C1.41445 4.33885 1.11247 4.65703 0.729961 4.66702C0.347456 4.677 0.0292775 4.37501 0.0192939 3.99251L0.711879 3.97443L1.40447 3.95635ZM0.000116805 2.06556C0.00011702 1.68293 0.310307 1.37274 0.692943 1.37274C1.07558 1.37274 1.38576 1.68293 1.38576 2.06556L0.692941 2.06556L0.000116805 2.06556ZM1.38576 1.15105C1.38576 1.53368 1.07558 1.84387 0.692942 1.84387C0.310306 1.84387 0.000117267 1.53368 0.000117483 1.15104L0.69294 1.15105L1.38576 1.15105ZM35.3281 54.5195L34.9817 55.1195L33.2512 54.1204L33.5976 53.5204L33.944 52.9204L35.6745 53.9195L35.3281 54.5195ZM30.1366 51.5222L29.7902 52.1223L28.0597 51.1232L28.4061 50.5232L28.7525 49.9232L30.483 50.9222L30.1366 51.5222ZM28.4061 50.5232L28.0597 51.1232C27.6346 50.8777 27.2135 50.6272 26.7965 50.3717L27.1584 49.781L27.5204 49.1902C27.9272 49.4394 28.3379 49.6838 28.7525 49.9232L28.4061 50.5232ZM24.7245 48.2008L24.3322 48.7718C23.5227 48.2157 22.7303 47.64 21.9554 47.0456L22.3771 46.4959L22.7988 45.9462C23.5545 46.5259 24.3274 47.0873 25.1168 47.6297L24.7245 48.2008ZM20.1215 44.6697L19.6715 45.1965C18.9252 44.5592 18.1973 43.9037 17.4883 43.2308L17.9652 42.7283L18.4422 42.2257C19.1336 42.8819 19.8435 43.5212 20.5714 44.1428L20.1215 44.6697ZM15.9134 40.6762L15.4108 41.1531C14.7357 40.4416 14.0803 39.7134 13.4451 38.9695L13.972 38.5196L14.4989 38.0697C15.1184 38.7953 15.7576 39.5054 16.416 40.1993L15.9134 40.6762ZM12.1462 36.2644L11.5965 36.6861C10.9999 35.9084 10.4242 35.1157 9.86977 34.3089L10.4408 33.9165L11.0118 33.5242C11.5525 34.3111 12.1141 35.0842 12.6959 35.8427L12.1462 36.2644ZM8.86054 31.4829L8.2698 31.8449C7.75804 31.0097 7.26819 30.1613 6.80079 29.3005L7.40965 28.9699L8.0185 28.6393C8.47438 29.4788 8.95214 30.3063 9.45128 31.1209L8.86054 31.4829ZM6.09214 26.3845L5.46683 26.6829C5.04531 25.7993 4.64669 24.9043 4.2715 23.9989L4.91155 23.7336L5.5516 23.4684C5.91754 24.3516 6.30632 25.2245 6.71745 26.0862L6.09214 26.3845ZM3.87138 21.0249L3.21832 21.2563C2.89166 20.3342 2.58874 19.4025 2.31011 18.4621L2.97438 18.2653L3.63866 18.0685C3.91041 18.9856 4.20583 19.8942 4.52443 20.7936L3.87138 21.0249ZM2.22315 15.4623L1.54947 15.6241C1.32126 14.6736 1.11751 13.7155 0.938718 12.7505L1.61995 12.6243L2.30118 12.4981C2.47555 13.4392 2.67426 14.3736 2.89682 15.3005L2.22315 15.4623ZM1.16621 9.75771L0.479304 9.84805C0.351963 8.87979 0.249597 7.9057 0.172691 6.92663L0.863386 6.87238L1.55408 6.81813C1.62909 7.77302 1.72893 8.72305 1.85312 9.66737L1.16621 9.75771ZM0.711879 3.97443L0.0192939 3.99251C0.0065303 3.50359 0.000119429 3.01366 0.000120644 2.52282L0.692941 2.52282L1.38576 2.52282C1.38577 3.00159 1.39202 3.47947 1.40447 3.95635L0.711879 3.97443ZM0.692941 2.52282L0.000120644 2.52282L0.000116805 2.06556L0.692941 2.06556L1.38576 2.06556L1.38576 2.52282L0.692941 2.52282ZM0.69294 1.15105L0.000117483 1.15104L0.000117328 0.693787L0.69294 0.693789L1.38576 0.693787L1.38576 1.15105L0.69294 1.15105Z" fill="#FD7E6B"/>
</svg>
