<svg width="1237" height="621" viewBox="0 0 1237 621" fill="none" xmlns="http://www.w3.org/2000/svg">
<g opacity="0.5">
<path d="M1460.94 68.3739L1431.26 91.1371C1414.88 103.696 1402 120.242 1393.83 139.195L1360.98 215.486C1349.58 241.95 1328.63 263.147 1302.3 274.851C1293.08 278.952 1283.35 281.815 1273.38 283.366L1112.99 308.311C1099.2 310.456 1086.12 315.848 1074.82 324.042C1062.65 332.86 1052.95 344.642 1046.62 358.267L999.541 459.683C989.87 480.513 973.231 497.313 952.495 507.184C943.932 511.259 934.826 514.079 925.458 515.554L766.744 540.545C752.271 542.824 738.453 548.176 726.22 556.24C705.457 569.927 690.37 590.687 683.762 614.661L676.725 640.195C673.202 652.977 667.598 665.091 660.138 676.052L651.267 689.087C645.336 697.801 638.289 705.702 630.307 712.587L578.619 757.169" stroke="white" stroke-opacity="0.16" stroke-width="12.0762"/>
<g opacity="0.2">
<path d="M52.0519 613.253L148.874 541.797L228.477 477.548C239.353 468.77 248.431 458.264 255.292 446.517L269.138 422.81C273.519 415.31 276.118 407.019 276.764 398.483C277.35 390.738 279.545 383.187 283.229 376.241L288.687 365.95C294.092 355.757 301.559 346.628 310.691 339.047C322.678 329.095 337.201 322.087 352.948 318.656L369.925 314.957L480.704 297.481L513.545 291.252C533.593 287.45 552.111 278.767 567.188 266.101C578.386 256.694 587.423 245.309 593.778 232.604L648.953 122.292C655.013 110.175 664.753 99.9681 677.004 92.8942C682.577 89.6765 688.593 87.1521 694.897 85.3856L702.907 83.1407C709.249 81.3636 715.743 80.0656 722.325 79.2596L770.104 73.4088L861.889 57.3687C880.481 54.1195 897.927 46.8613 912.809 36.1835C927.136 25.9043 938.705 12.7297 946.646 -2.34709L988.895 -82.5682C996.332 -96.6885 1006.9 -109.187 1019.92 -119.266L1033.83 -130.038C1040.66 -135.328 1048.11 -139.904 1056.05 -143.686L1286.34 -253.493L1326.22 -173.083L181.118 732.438L52.0519 613.253Z" fill="url(#paint0_linear_561_15150)"/>
<path d="M311.009 339.373C322.939 329.47 337.392 322.495 353.062 319.081L370.027 315.383L480.789 297.911L480.797 297.91L480.805 297.909L513.646 291.68C533.776 287.862 552.37 279.143 567.509 266.425C578.753 256.979 587.828 245.548 594.208 232.791L649.382 122.479C655.405 110.437 665.083 100.295 677.258 93.2649C682.797 90.0674 688.775 87.5588 695.039 85.8034L703.05 83.5585C709.367 81.7882 715.836 80.4953 722.393 79.6924L770.173 73.8416L770.186 73.8399L770.198 73.8376L861.982 57.7973C880.647 54.5354 898.161 47.2489 913.102 36.5294C927.485 26.21 939.1 12.9835 947.071 -2.15228L989.322 -82.3737C996.73 -96.4395 1007.25 -108.89 1020.22 -118.93L1034.14 -129.702C1040.94 -134.971 1048.37 -139.53 1056.27 -143.298L1286.11 -252.893L1325.64 -173.203L181.138 731.844L52.7596 613.293L149.172 542.139L149.188 542.127L228.791 477.878C239.708 469.067 248.822 458.52 255.709 446.728L269.555 423.021C273.968 415.467 276.586 407.116 277.236 398.519C277.818 390.83 279.997 383.333 283.655 376.436L289.112 366.146C294.492 356.002 301.922 346.917 311.009 339.373Z" stroke="white" stroke-opacity="0.16" stroke-width="0.910367"/>
</g>
<path d="M1358.7 12.6288L1329.02 35.392C1312.64 47.9508 1299.76 64.4964 1291.59 83.45L1258.74 159.741C1247.34 186.205 1226.39 207.402 1200.06 219.106C1190.84 223.207 1181.11 226.07 1171.14 227.621L1010.75 252.566C996.961 254.711 983.876 260.103 972.576 268.297C960.414 277.115 950.71 288.897 944.384 302.522L897.301 403.938C887.63 424.768 870.991 441.568 850.255 451.438C841.692 455.514 832.586 458.333 823.218 459.809L664.504 484.8C650.03 487.079 636.213 492.431 623.98 500.495C603.217 514.182 588.13 534.941 581.522 558.916L574.484 584.45C570.961 597.232 565.358 609.346 557.898 620.307L549.027 633.341C543.096 642.056 536.049 649.957 528.067 656.842L476.379 701.424" stroke="white" stroke-opacity="0.26" stroke-width="12.0762"/>
<path d="M1256.45 -43.1134L1226.77 -20.3502C1210.4 -7.7914 1197.51 8.75421 1189.35 27.7078L1156.5 103.999C1145.1 130.463 1124.15 151.66 1097.82 163.364C1088.59 167.464 1078.87 170.327 1068.89 171.879L908.51 196.824C894.718 198.969 881.632 204.361 870.332 212.555C858.171 221.373 848.466 233.155 842.141 246.78L795.057 348.195C785.387 369.025 768.748 385.826 748.011 395.696C739.449 399.772 730.343 402.591 720.975 404.066L562.261 429.058C547.787 431.337 533.969 436.688 521.736 444.753C500.974 458.44 485.887 479.199 479.279 503.173L472.241 528.707C468.718 541.489 463.114 553.604 455.655 564.565L446.784 577.599C440.853 586.314 433.806 594.215 425.823 601.1L374.136 645.682" stroke="white" stroke-opacity="0.26" stroke-width="12.0762"/>
<path d="M1251.93 -103.07L1153.28 -73.2051C1119.21 -62.8926 1091.43 -38.0786 1077.36 -5.39L1054.25 48.2544C1042.86 74.7187 1021.9 95.9157 995.573 107.62C986.349 111.72 976.623 114.583 966.649 116.134L806.267 141.079C792.475 143.225 779.389 148.616 768.089 156.81C755.928 165.629 746.223 177.41 739.897 191.035L692.814 292.451C683.144 313.281 666.504 330.081 645.768 339.952C637.205 344.028 628.099 346.847 618.732 348.322L460.018 373.313C445.544 375.593 431.726 380.944 419.493 389.008C398.731 402.695 383.643 423.455 377.036 447.429L369.998 472.963C366.475 485.745 360.871 497.859 353.412 508.82L343.64 523.178C338.302 531.021 332.059 538.208 325.039 544.589L209.903 649.259" stroke="white" stroke-opacity="0.26" stroke-width="12.0762"/>
<path d="M1292.54 -260.913L1036.64 -132.429C1011.24 -119.676 991.152 -98.3751 979.911 -72.2728L952.011 -7.48904C940.614 18.9752 919.662 40.1722 893.332 51.8762C884.108 55.9765 874.382 58.8395 864.407 60.3909L704.026 85.336C690.233 87.4812 677.148 92.8729 665.848 101.067C653.686 109.885 643.982 121.667 637.656 135.292L590.573 236.708C580.902 257.538 564.263 274.338 543.527 284.208C534.964 288.284 525.858 291.103 516.49 292.579L357.777 317.57C343.303 319.849 329.485 325.201 317.252 333.265C296.489 346.952 281.402 367.711 274.795 391.686L267.757 417.22C264.234 430.002 258.63 442.116 251.17 453.077L244.816 462.413C237.235 473.553 227.843 483.345 217.03 491.383L6.74205 647.713" stroke="white" stroke-width="6.87796"/>
<path d="M1603.02 100.777L1573.34 123.54C1556.96 136.099 1544.08 152.645 1535.91 171.599L1503.06 247.889C1491.66 274.354 1470.71 295.551 1444.38 307.255C1435.16 311.355 1425.43 314.218 1415.46 315.769L1255.07 340.714C1241.28 342.86 1228.2 348.251 1216.9 356.445C1204.73 365.264 1195.03 377.045 1188.7 390.67L1141.62 492.086C1131.95 512.916 1115.31 529.716 1094.57 539.587C1086.01 543.663 1076.91 546.482 1067.54 547.957L908.824 572.949C894.351 575.228 880.533 580.579 868.3 588.643C847.537 602.33 832.45 623.09 825.842 647.064L818.805 672.598C815.282 685.38 809.678 697.495 802.218 708.455L793.347 721.49C787.416 730.205 780.369 738.106 772.387 744.991L720.699 789.573" stroke="white" stroke-opacity="0.16" stroke-width="12.073"/>
</g>
<defs>
<linearGradient id="paint0_linear_561_15150" x1="641.819" y1="175.696" x2="714.043" y2="283.143" gradientUnits="userSpaceOnUse">
<stop stop-color="white"/>
<stop offset="1" stop-color="white" stop-opacity="0"/>
</linearGradient>
</defs>
</svg>
