<svg width="741" height="373" viewBox="0 0 741 373" fill="none" xmlns="http://www.w3.org/2000/svg">
<mask id="mask0_793_1016" style="mask-type:alpha" maskUnits="userSpaceOnUse" x="0" y="0" width="741" height="373">
<rect width="741" height="373" rx="30.3274" fill="white"/>
<rect x="0.505457" y="0.505457" width="739.989" height="371.989" rx="29.822" stroke="#09192F" stroke-opacity="0.16" stroke-width="1.01091"/>
</mask>
<g mask="url(#mask0_793_1016)">
<rect width="741" height="373" rx="30.3274" fill="white"/>
<rect x="0.505457" y="0.505457" width="739.989" height="371.989" rx="29.822" stroke="#09192F" stroke-opacity="0.16" stroke-width="1.01091"/>
<g filter="url(#filter0_f_793_1016)">
<mask id="path-5-outside-1_793_1016" maskUnits="userSpaceOnUse" x="27.4365" y="243.773" width="757" height="207" fill="black">
<rect fill="white" x="27.4365" y="243.773" width="757" height="207"/>
<path d="M48.8578 428.773V411.089L129.281 295.717H48.4367V271.927H164.65V289.717L84.2271 404.983H165.071V428.773H48.8578ZM251.764 379.404V311.086H279.449V428.773H252.606V407.826H251.343C248.676 414.422 244.325 419.826 238.29 424.036C232.255 428.247 224.816 430.317 215.974 430.247C208.254 430.247 201.447 428.563 195.552 425.194C189.727 421.756 185.131 416.738 181.762 410.141C178.464 403.475 176.815 395.439 176.815 386.035V311.086H204.5V381.825C204.5 389.193 206.535 395.088 210.605 399.51C214.746 403.931 220.149 406.106 226.816 406.036C230.886 406.036 234.816 405.054 238.606 403.089C242.466 401.124 245.624 398.176 248.08 394.246C250.536 390.316 251.764 385.369 251.764 379.404ZM318.772 391.93L318.667 358.351H323.193L365.405 311.086H397.827L345.826 369.088H340.036L318.772 391.93ZM293.508 428.773V271.927H321.193V428.773H293.508ZM367.3 428.773L328.983 375.298L347.72 355.719L400.459 428.773H367.3ZM476.519 379.404V311.086H504.204V428.773H477.362V407.826H476.098C473.432 414.422 469.081 419.826 463.045 424.036C457.01 428.247 449.571 430.317 440.729 430.247C433.01 430.247 426.202 428.563 420.307 425.194C414.483 421.756 409.886 416.738 406.518 410.141C403.219 403.475 401.57 395.439 401.57 386.035V311.086H429.255V381.825C429.255 389.193 431.29 395.088 435.361 399.51C439.501 403.931 444.905 406.106 451.571 406.036C455.642 406.036 459.572 405.054 463.361 403.089C467.221 401.124 470.379 398.176 472.835 394.246C475.291 390.316 476.519 385.369 476.519 379.404ZM545.949 359.93V428.773H518.264V311.086H545.422V331.192H546.791C549.458 324.595 553.633 319.367 559.317 315.507C565.072 311.577 572.37 309.612 581.213 309.612C589.353 309.612 596.441 311.332 602.476 314.77C608.512 318.209 613.179 323.262 616.477 329.929C619.845 336.525 621.53 344.526 621.53 353.929V428.773H593.845V358.245C593.845 350.385 591.81 344.245 587.739 339.824C583.669 335.332 578.055 333.087 570.897 333.087C566.054 333.087 561.739 334.139 557.949 336.245C554.23 338.35 551.282 341.403 549.107 345.403C547.001 349.333 545.949 354.175 545.949 359.93ZM695.38 311.086V332.56H626.01V311.086H695.38ZM643.273 428.773V300.033C643.273 292.103 644.922 285.507 648.221 280.243C651.519 274.98 655.94 271.05 661.484 268.453C667.099 265.857 673.274 264.559 680.011 264.559C684.853 264.559 689.134 264.945 692.854 265.717C696.643 266.488 699.415 267.19 701.17 267.822L695.485 289.296C694.362 288.875 692.924 288.489 691.169 288.138C689.415 287.717 687.415 287.507 685.169 287.507C680.046 287.507 676.362 288.77 674.116 291.296C671.941 293.823 670.853 297.402 670.853 302.033V428.773H643.273ZM761.441 311.086V332.56H693.965V311.086H761.441ZM710.492 283.085H738.177V393.404C738.177 398.036 739.194 401.474 741.23 403.72C743.265 405.896 746.493 406.983 750.914 406.983C752.107 406.983 753.44 406.878 754.914 406.668C756.388 406.457 757.721 406.211 758.914 405.931L763.651 427.616C760.704 428.528 757.721 429.195 754.704 429.616C751.686 430.107 748.668 430.352 745.651 430.352C734.703 430.352 726.106 427.475 719.861 421.721C713.615 415.896 710.492 407.966 710.492 397.931V283.085Z"/>
</mask>
<path d="M48.8578 428.773V411.089L129.281 295.717H48.4367V271.927H164.65V289.717L84.2271 404.983H165.071V428.773H48.8578ZM251.764 379.404V311.086H279.449V428.773H252.606V407.826H251.343C248.676 414.422 244.325 419.826 238.29 424.036C232.255 428.247 224.816 430.317 215.974 430.247C208.254 430.247 201.447 428.563 195.552 425.194C189.727 421.756 185.131 416.738 181.762 410.141C178.464 403.475 176.815 395.439 176.815 386.035V311.086H204.5V381.825C204.5 389.193 206.535 395.088 210.605 399.51C214.746 403.931 220.149 406.106 226.816 406.036C230.886 406.036 234.816 405.054 238.606 403.089C242.466 401.124 245.624 398.176 248.08 394.246C250.536 390.316 251.764 385.369 251.764 379.404ZM318.772 391.93L318.667 358.351H323.193L365.405 311.086H397.827L345.826 369.088H340.036L318.772 391.93ZM293.508 428.773V271.927H321.193V428.773H293.508ZM367.3 428.773L328.983 375.298L347.72 355.719L400.459 428.773H367.3ZM476.519 379.404V311.086H504.204V428.773H477.362V407.826H476.098C473.432 414.422 469.081 419.826 463.045 424.036C457.01 428.247 449.571 430.317 440.729 430.247C433.01 430.247 426.202 428.563 420.307 425.194C414.483 421.756 409.886 416.738 406.518 410.141C403.219 403.475 401.57 395.439 401.57 386.035V311.086H429.255V381.825C429.255 389.193 431.29 395.088 435.361 399.51C439.501 403.931 444.905 406.106 451.571 406.036C455.642 406.036 459.572 405.054 463.361 403.089C467.221 401.124 470.379 398.176 472.835 394.246C475.291 390.316 476.519 385.369 476.519 379.404ZM545.949 359.93V428.773H518.264V311.086H545.422V331.192H546.791C549.458 324.595 553.633 319.367 559.317 315.507C565.072 311.577 572.37 309.612 581.213 309.612C589.353 309.612 596.441 311.332 602.476 314.77C608.512 318.209 613.179 323.262 616.477 329.929C619.845 336.525 621.53 344.526 621.53 353.929V428.773H593.845V358.245C593.845 350.385 591.81 344.245 587.739 339.824C583.669 335.332 578.055 333.087 570.897 333.087C566.054 333.087 561.739 334.139 557.949 336.245C554.23 338.35 551.282 341.403 549.107 345.403C547.001 349.333 545.949 354.175 545.949 359.93ZM695.38 311.086V332.56H626.01V311.086H695.38ZM643.273 428.773V300.033C643.273 292.103 644.922 285.507 648.221 280.243C651.519 274.98 655.94 271.05 661.484 268.453C667.099 265.857 673.274 264.559 680.011 264.559C684.853 264.559 689.134 264.945 692.854 265.717C696.643 266.488 699.415 267.19 701.17 267.822L695.485 289.296C694.362 288.875 692.924 288.489 691.169 288.138C689.415 287.717 687.415 287.507 685.169 287.507C680.046 287.507 676.362 288.77 674.116 291.296C671.941 293.823 670.853 297.402 670.853 302.033V428.773H643.273ZM761.441 311.086V332.56H693.965V311.086H761.441ZM710.492 283.085H738.177V393.404C738.177 398.036 739.194 401.474 741.23 403.72C743.265 405.896 746.493 406.983 750.914 406.983C752.107 406.983 753.44 406.878 754.914 406.668C756.388 406.457 757.721 406.211 758.914 405.931L763.651 427.616C760.704 428.528 757.721 429.195 754.704 429.616C751.686 430.107 748.668 430.352 745.651 430.352C734.703 430.352 726.106 427.475 719.861 421.721C713.615 415.896 710.492 407.966 710.492 397.931V283.085Z" fill="#4E9868"/>
<path d="M48.8578 428.773H28.6505C28.6505 439.934 37.6976 448.981 48.8578 448.981V428.773ZM48.8578 411.089L32.2807 399.533C29.9175 402.923 28.6505 406.956 28.6505 411.089H48.8578ZM129.281 295.717L145.858 307.273C150.163 301.098 150.678 293.041 147.195 286.368C143.712 279.694 136.809 275.51 129.281 275.51V295.717ZM48.4367 295.717H28.2295C28.2295 306.877 37.2766 315.925 48.4367 315.925V295.717ZM48.4367 271.927V251.72C37.2766 251.72 28.2295 260.767 28.2295 271.927H48.4367ZM164.65 271.927H184.858C184.858 260.767 175.81 251.72 164.65 251.72V271.927ZM164.65 289.717L181.222 301.28C183.589 297.888 184.858 293.853 184.858 289.717H164.65ZM84.2271 404.983L67.655 393.421C63.3467 399.595 62.8287 407.653 66.3109 414.329C69.7931 421.005 76.6979 425.191 84.2271 425.191V404.983ZM165.071 404.983H185.279C185.279 393.823 176.232 384.776 165.071 384.776V404.983ZM165.071 428.773V448.981C176.232 448.981 185.279 439.934 185.279 428.773H165.071ZM48.8578 428.773H69.0651V411.089H48.8578H28.6505V428.773H48.8578ZM48.8578 411.089L65.4349 422.644L145.858 307.273L129.281 295.717L112.704 284.162L32.2807 399.533L48.8578 411.089ZM129.281 295.717V275.51H48.4367V295.717V315.925H129.281V295.717ZM48.4367 295.717H68.644V271.927H48.4367H28.2295V295.717H48.4367ZM48.4367 271.927V292.134H164.65V271.927V251.72H48.4367V271.927ZM164.65 271.927H144.443V289.717H164.65H184.858V271.927H164.65ZM164.65 289.717L148.078 278.154L67.655 393.421L84.2271 404.983L100.799 416.546L181.222 301.28L164.65 289.717ZM84.2271 404.983V425.191H165.071V404.983V384.776H84.2271V404.983ZM165.071 404.983H144.864V428.773H165.071H185.279V404.983H165.071ZM165.071 428.773V408.566H48.8578V428.773V448.981H165.071V428.773ZM251.764 311.086V290.879C240.604 290.879 231.557 299.926 231.557 311.086H251.764ZM279.449 311.086H299.656C299.656 299.926 290.609 290.879 279.449 290.879V311.086ZM279.449 428.773V448.981C290.609 448.981 299.656 439.934 299.656 428.773H279.449ZM252.606 428.773H232.399C232.399 439.934 241.446 448.981 252.606 448.981V428.773ZM252.606 407.826H272.814C272.814 396.665 263.766 387.618 252.606 387.618V407.826ZM251.343 407.826V387.618C243.107 387.618 235.695 392.617 232.609 400.252L251.343 407.826ZM215.974 430.247L216.134 410.041C216.081 410.04 216.027 410.04 215.974 410.04V430.247ZM195.552 425.194L185.279 442.596C185.361 442.644 185.444 442.692 185.527 442.739L195.552 425.194ZM181.762 410.141L163.65 419.102C163.688 419.179 163.727 419.255 163.766 419.331L181.762 410.141ZM176.815 311.086V290.879C165.655 290.879 156.608 299.926 156.608 311.086H176.815ZM204.5 311.086H224.707C224.707 299.926 215.66 290.879 204.5 290.879V311.086ZM210.605 399.51L195.739 413.196C195.778 413.238 195.817 413.28 195.856 413.322L210.605 399.51ZM226.816 406.036V385.829C226.745 385.829 226.674 385.829 226.603 385.83L226.816 406.036ZM238.606 403.089L229.438 385.081C229.393 385.103 229.349 385.126 229.304 385.149L238.606 403.089ZM251.764 379.404H271.971V311.086H251.764H231.557V379.404H251.764ZM251.764 311.086V331.293H279.449V311.086V290.879H251.764V311.086ZM279.449 311.086H259.242V428.773H279.449H299.656V311.086H279.449ZM279.449 428.773V408.566H252.606V428.773V448.981H279.449V428.773ZM252.606 428.773H272.814V407.826H252.606H232.399V428.773H252.606ZM252.606 407.826V387.618H251.343V407.826V428.033H252.606V407.826ZM251.343 407.826L232.609 400.252C231.462 403.088 229.667 405.413 226.728 407.464L238.29 424.036L249.852 440.609C258.984 434.238 265.89 425.756 270.077 415.399L251.343 407.826ZM238.29 424.036L226.728 407.464C224.775 408.827 221.649 410.084 216.134 410.041L215.974 430.247L215.813 450.454C227.983 450.55 239.735 447.667 249.852 440.609L238.29 424.036ZM215.974 430.247V410.04C211.281 410.04 208.021 409.046 205.578 407.65L195.552 425.194L185.527 442.739C194.873 448.08 205.227 450.454 215.974 450.454V430.247ZM195.552 425.194L205.825 407.793C203.613 406.487 201.556 404.471 199.759 400.952L181.762 410.141L163.766 419.331C168.706 429.005 175.842 437.024 185.279 442.596L195.552 425.194ZM181.762 410.141L199.874 401.181C198.269 397.937 197.022 393.13 197.022 386.035H176.815H156.608C156.608 397.749 158.659 409.012 163.65 419.102L181.762 410.141ZM176.815 386.035H197.022V311.086H176.815H156.608V386.035H176.815ZM176.815 311.086V331.293H204.5V311.086V290.879H176.815V311.086ZM204.5 311.086H184.292V381.825H204.5H224.707V311.086H204.5ZM204.5 381.825H184.292C184.292 393.06 187.497 404.244 195.739 413.196L210.605 399.51L225.472 385.823C225.393 385.737 225.272 385.597 225.127 385.178C224.961 384.698 224.707 383.662 224.707 381.825H204.5ZM210.605 399.51L195.856 413.322C204.281 422.319 215.334 426.365 227.029 426.242L226.816 406.036L226.603 385.83C225.546 385.841 225.216 385.674 225.31 385.712C225.342 385.725 225.393 385.751 225.437 385.781C225.478 385.81 225.449 385.798 225.354 385.697L210.605 399.51ZM226.816 406.036V426.243C234.283 426.243 241.389 424.408 247.908 421.028L238.606 403.089L229.304 385.149C228.244 385.699 227.49 385.829 226.816 385.829V406.036ZM238.606 403.089L247.774 421.097C255.132 417.35 260.956 411.771 265.216 404.956L248.08 394.246L230.944 383.536C230.291 384.582 229.799 384.897 229.438 385.081L238.606 403.089ZM248.08 394.246L265.216 404.956C270.18 397.013 271.971 388.084 271.971 379.404H251.764H231.557C231.557 381.016 231.389 382.081 231.231 382.72C231.153 383.034 231.078 383.241 231.028 383.362C230.979 383.481 230.947 383.532 230.944 383.536L248.08 394.246ZM318.772 391.93L298.565 391.994C298.591 400.287 303.682 407.722 311.404 410.746C319.126 413.77 327.912 411.769 333.563 405.699L318.772 391.93ZM318.667 358.351V338.143C313.297 338.143 308.147 340.281 304.356 344.084C300.564 347.888 298.443 353.044 298.46 358.414L318.667 358.351ZM323.193 358.351V378.558C328.949 378.558 334.431 376.104 338.265 371.811L323.193 358.351ZM365.405 311.086V290.879C359.65 290.879 354.167 293.333 350.333 297.626L365.405 311.086ZM397.827 311.086L412.873 324.575C418.195 318.639 419.529 310.128 416.278 302.847C413.028 295.567 405.8 290.879 397.827 290.879V311.086ZM345.826 369.088V389.295C351.567 389.295 357.038 386.852 360.871 382.577L345.826 369.088ZM340.036 369.088V348.88C334.426 348.88 329.068 351.213 325.245 355.319L340.036 369.088ZM293.508 428.773H273.301C273.301 439.934 282.348 448.981 293.508 448.981V428.773ZM293.508 271.927V251.72C282.348 251.72 273.301 260.767 273.301 271.927H293.508ZM321.193 271.927H341.401C341.401 260.767 332.353 251.72 321.193 251.72V271.927ZM321.193 428.773V448.981C332.353 448.981 341.401 439.934 341.401 428.773H321.193ZM367.3 428.773L350.874 440.543C354.669 445.839 360.784 448.981 367.3 448.981V428.773ZM328.983 375.298L314.384 361.327C307.662 368.351 306.895 379.165 312.557 387.068L328.983 375.298ZM347.72 355.719L364.104 343.891C360.593 339.026 355.101 335.974 349.115 335.56C343.129 335.146 337.269 337.413 333.121 341.748L347.72 355.719ZM400.459 428.773V448.981C408.046 448.981 414.994 444.73 418.449 437.975C421.904 431.219 421.284 423.098 416.843 416.946L400.459 428.773ZM318.772 391.93L338.979 391.867L338.874 358.287L318.667 358.351L298.46 358.414L298.565 391.994L318.772 391.93ZM318.667 358.351V378.558H323.193V358.351V338.143H318.667V358.351ZM323.193 358.351L338.265 371.811L380.477 324.547L365.405 311.086L350.333 297.626L308.122 344.89L323.193 358.351ZM365.405 311.086V331.293H397.827V311.086V290.879H365.405V311.086ZM397.827 311.086L382.781 297.597L330.78 355.598L345.826 369.088L360.871 382.577L412.873 324.575L397.827 311.086ZM345.826 369.088V348.88H340.036V369.088V389.295H345.826V369.088ZM340.036 369.088L325.245 355.319L303.981 378.162L318.772 391.93L333.563 405.699L354.827 382.856L340.036 369.088ZM293.508 428.773H313.716V271.927H293.508H273.301V428.773H293.508ZM293.508 271.927V292.134H321.193V271.927V251.72H293.508V271.927ZM321.193 271.927H300.986V428.773H321.193H341.401V271.927H321.193ZM321.193 428.773V408.566H293.508V428.773V448.981H321.193V428.773ZM367.3 428.773L383.726 417.004L345.409 363.529L328.983 375.298L312.557 387.068L350.874 440.543L367.3 428.773ZM328.983 375.298L343.582 389.27L362.32 369.69L347.72 355.719L333.121 341.748L314.384 361.327L328.983 375.298ZM347.72 355.719L331.336 367.547L384.074 440.601L400.459 428.773L416.843 416.946L364.104 343.891L347.72 355.719ZM400.459 428.773V408.566H367.3V428.773V448.981H400.459V428.773ZM476.52 311.086V290.879C465.359 290.879 456.312 299.926 456.312 311.086H476.52ZM504.204 311.086H524.412C524.412 299.926 515.365 290.879 504.204 290.879V311.086ZM504.204 428.773V448.981C515.365 448.981 524.412 439.934 524.412 428.773H504.204ZM477.362 428.773H457.154C457.154 439.934 466.201 448.981 477.362 448.981V428.773ZM477.362 407.826H497.569C497.569 396.665 488.522 387.618 477.362 387.618V407.826ZM476.098 407.826V387.618C467.863 387.618 460.451 392.617 457.364 400.252L476.098 407.826ZM440.729 430.247L440.889 410.041C440.836 410.04 440.783 410.04 440.729 410.04V430.247ZM420.307 425.194L410.035 442.596C410.117 442.644 410.199 442.692 410.282 442.739L420.307 425.194ZM406.518 410.141L388.406 419.102C388.444 419.179 388.482 419.255 388.521 419.331L406.518 410.141ZM401.57 311.086V290.879C390.41 290.879 381.363 299.926 381.363 311.086H401.57ZM429.255 311.086H449.462C449.462 299.926 440.415 290.879 429.255 290.879V311.086ZM435.361 399.51L420.494 413.196C420.533 413.238 420.572 413.28 420.611 413.322L435.361 399.51ZM451.571 406.036V385.829C451.501 385.829 451.43 385.829 451.359 385.83L451.571 406.036ZM463.361 403.089L454.194 385.081C454.149 385.103 454.104 385.126 454.06 385.149L463.361 403.089ZM476.52 379.404H496.727V311.086H476.52H456.312V379.404H476.52ZM476.52 311.086V331.293H504.204V311.086V290.879H476.52V311.086ZM504.204 311.086H483.997V428.773H504.204H524.412V311.086H504.204ZM504.204 428.773V408.566H477.362V428.773V448.981H504.204V428.773ZM477.362 428.773H497.569V407.826H477.362H457.154V428.773H477.362ZM477.362 407.826V387.618H476.098V407.826V428.033H477.362V407.826ZM476.098 407.826L457.364 400.252C456.218 403.088 454.422 405.413 451.483 407.464L463.045 424.036L474.608 440.609C483.739 434.238 490.646 425.756 494.833 415.399L476.098 407.826ZM463.045 424.036L451.483 407.464C449.53 408.827 446.405 410.084 440.889 410.041L440.729 430.247L440.569 450.454C452.738 450.55 464.49 447.667 474.608 440.609L463.045 424.036ZM440.729 430.247V410.04C436.036 410.04 432.776 409.046 430.333 407.65L420.307 425.194L410.282 442.739C419.629 448.08 429.983 450.454 440.729 450.454V430.247ZM420.307 425.194L430.58 407.793C428.368 406.487 426.311 404.471 424.514 400.952L406.518 410.141L388.521 419.331C393.461 429.005 400.597 437.024 410.035 442.596L420.307 425.194ZM406.518 410.141L424.63 401.181C423.025 397.937 421.777 393.13 421.777 386.035H401.57H381.363C381.363 397.749 383.414 409.012 388.406 419.102L406.518 410.141ZM401.57 386.035H421.777V311.086H401.57H381.363V386.035H401.57ZM401.57 311.086V331.293H429.255V311.086V290.879H401.57V311.086ZM429.255 311.086H409.048V381.825H429.255H449.462V311.086H429.255ZM429.255 381.825H409.048C409.048 393.06 412.253 404.244 420.494 413.196L435.361 399.51L450.227 385.823C450.148 385.737 450.027 385.597 449.882 385.178C449.717 384.698 449.462 383.662 449.462 381.825H429.255ZM435.361 399.51L420.611 413.322C429.037 422.319 440.09 426.365 451.784 426.242L451.571 406.036L451.359 385.83C450.301 385.841 449.971 385.674 450.065 385.712C450.097 385.725 450.148 385.751 450.192 385.781C450.234 385.81 450.205 385.798 450.11 385.697L435.361 399.51ZM451.571 406.036V426.243C459.038 426.243 466.144 424.408 472.663 421.028L463.361 403.089L454.06 385.149C453 385.699 452.245 385.829 451.571 385.829V406.036ZM463.361 403.089L472.529 421.097C479.888 417.35 485.712 411.771 489.971 404.956L472.835 394.246L455.699 383.536C455.046 384.582 454.554 384.897 454.194 385.081L463.361 403.089ZM472.835 394.246L489.971 404.956C494.935 397.013 496.727 388.084 496.727 379.404H476.52H456.312C456.312 381.016 456.145 382.081 455.986 382.72C455.908 383.034 455.834 383.241 455.783 383.362C455.734 383.481 455.702 383.532 455.699 383.536L472.835 394.246ZM545.949 428.773V448.981C557.109 448.981 566.156 439.934 566.156 428.773H545.949ZM518.264 428.773H498.056C498.056 439.934 507.104 448.981 518.264 448.981V428.773ZM518.264 311.086V290.879C507.104 290.879 498.056 299.926 498.056 311.086H518.264ZM545.422 311.086H565.63C565.63 299.926 556.583 290.879 545.422 290.879V311.086ZM545.422 331.192H525.215C525.215 342.352 534.262 351.399 545.422 351.399V331.192ZM546.791 331.192V351.399C555.027 351.399 562.438 346.401 565.525 338.765L546.791 331.192ZM559.317 315.507L570.669 332.225C570.684 332.215 570.699 332.205 570.714 332.194L559.317 315.507ZM616.477 329.929L598.365 338.889C598.403 338.966 598.441 339.042 598.48 339.119L616.477 329.929ZM621.53 428.773V448.981C632.69 448.981 641.737 439.934 641.737 428.773H621.53ZM593.845 428.773H573.637C573.637 439.934 582.685 448.981 593.845 448.981V428.773ZM587.739 339.824L572.766 353.393C572.801 353.432 572.837 353.471 572.873 353.51L587.739 339.824ZM557.949 336.245L548.135 318.58C548.089 318.606 548.042 318.633 547.995 318.659L557.949 336.245ZM549.107 345.403L531.355 335.748C531.335 335.786 531.314 335.823 531.294 335.861L549.107 345.403ZM545.949 359.93H525.741V428.773H545.949H566.156V359.93H545.949ZM545.949 428.773V408.566H518.264V428.773V448.981H545.949V428.773ZM518.264 428.773H538.471V311.086H518.264H498.056V428.773H518.264ZM518.264 311.086V331.293H545.422V311.086V290.879H518.264V311.086ZM545.422 311.086H525.215V331.192H545.422H565.63V311.086H545.422ZM545.422 331.192V351.399H546.791V331.192V310.985H545.422V331.192ZM546.791 331.192L565.525 338.765C566.748 335.741 568.42 333.752 570.669 332.225L559.317 315.507L547.966 298.79C538.846 304.982 532.167 313.449 528.056 323.618L546.791 331.192ZM559.317 315.507L570.714 332.194C572.309 331.105 575.344 329.82 581.213 329.82V309.612V289.405C569.397 289.405 557.835 292.05 547.921 298.82L559.317 315.507ZM581.213 309.612V329.82C586.453 329.82 589.973 330.904 592.473 332.328L602.476 314.77L612.48 297.213C602.909 291.76 592.254 289.405 581.213 289.405V309.612ZM602.476 314.77L592.473 332.328C594.757 333.63 596.719 335.563 598.365 338.889L616.477 329.929L634.589 320.968C629.638 310.96 622.266 302.789 612.48 297.213L602.476 314.77ZM616.477 329.929L598.48 339.119C600.057 342.207 601.322 346.882 601.322 353.929H621.53H641.737C641.737 342.169 639.634 330.844 634.474 320.739L616.477 329.929ZM621.53 353.929H601.322V428.773H621.53H641.737V353.929H621.53ZM621.53 428.773V408.566H593.845V428.773V448.981H621.53V428.773ZM593.845 428.773H614.052V358.245H593.845H573.637V428.773H593.845ZM593.845 358.245H614.052C614.052 346.919 611.061 335.321 602.606 326.137L587.739 339.824L572.873 353.51C572.875 353.513 572.878 353.516 572.882 353.521C572.886 353.527 572.897 353.543 572.916 353.575C572.95 353.635 573.035 353.795 573.137 354.102C573.347 354.736 573.637 356.027 573.637 358.245H593.845ZM587.739 339.824L602.713 326.254C594.115 316.767 582.631 312.879 570.897 312.879V333.087V353.294C572.368 353.294 572.946 353.523 572.971 353.533C572.987 353.539 572.936 353.519 572.857 353.465C572.779 353.41 572.747 353.372 572.766 353.393L587.739 339.824ZM570.897 333.087V312.879C563.03 312.879 555.266 314.619 548.135 318.58L557.949 336.245L567.763 353.909C568.211 353.66 569.079 353.294 570.897 353.294V333.087ZM557.949 336.245L547.995 318.659C540.768 322.75 535.213 328.654 531.355 335.748L549.107 345.403L566.858 355.057C567.351 354.152 567.691 353.95 567.903 353.83L557.949 336.245ZM549.107 345.403L531.294 335.861C527.226 343.455 525.741 351.786 525.741 359.93H545.949H566.156C566.156 356.564 566.777 355.21 566.919 354.945L549.107 345.403ZM695.38 311.086H715.587C715.587 299.926 706.54 290.879 695.38 290.879V311.086ZM695.38 332.56V352.768C706.54 352.768 715.587 343.721 715.587 332.56H695.38ZM626.01 332.56H605.802C605.802 343.721 614.85 352.768 626.01 352.768V332.56ZM626.01 311.086V290.879C614.85 290.879 605.802 299.926 605.802 311.086H626.01ZM643.273 428.773H623.066C623.066 439.934 632.113 448.981 643.273 448.981V428.773ZM661.484 268.453L653.002 250.113C652.972 250.126 652.943 250.14 652.914 250.154L661.484 268.453ZM692.854 265.717L688.747 285.502C688.771 285.507 688.796 285.512 688.82 285.517L692.854 265.717ZM701.17 267.822L720.704 272.993C723.386 262.86 717.876 252.359 708.014 248.809L701.17 267.822ZM695.485 289.296L688.39 308.217C693.737 310.222 699.682 309.871 704.756 307.251C709.83 304.631 713.558 299.987 715.02 294.467L695.485 289.296ZM691.169 288.138L686.453 307.787C686.703 307.847 686.954 307.903 687.206 307.953L691.169 288.138ZM674.116 291.296L659.013 277.871C658.943 277.95 658.873 278.03 658.804 278.11L674.116 291.296ZM670.853 428.773V448.981C682.013 448.981 691.06 439.934 691.06 428.773H670.853ZM695.38 311.086H675.173V332.56H695.38H715.587V311.086H695.38ZM695.38 332.56V312.353H626.01V332.56V352.768H695.38V332.56ZM626.01 332.56H646.217V311.086H626.01H605.802V332.56H626.01ZM626.01 311.086V331.293H695.38V311.086V290.879H626.01V311.086ZM643.273 428.773H663.481V300.033H643.273H623.066V428.773H643.273ZM643.273 300.033H663.481C663.481 294.86 664.549 292.242 665.344 290.974L648.221 280.243L631.098 269.513C625.296 278.771 623.066 289.346 623.066 300.033H643.273ZM648.221 280.243L665.344 290.974C666.61 288.952 668.084 287.676 670.055 286.753L661.484 268.453L652.914 250.154C643.796 254.424 636.428 261.008 631.098 269.513L648.221 280.243ZM661.484 268.453L669.967 286.794C672.692 285.534 675.939 284.766 680.011 284.766V264.559V244.351C670.609 244.351 661.505 246.18 653.002 250.113L661.484 268.453ZM680.011 264.559V284.766C683.83 284.766 686.688 285.075 688.747 285.502L692.854 265.717L696.96 245.931C691.581 244.814 685.877 244.351 680.011 244.351V264.559ZM692.854 265.717L688.82 285.517C690.505 285.86 691.821 286.159 692.815 286.411C693.307 286.536 693.682 286.639 693.953 286.719C694.232 286.801 694.344 286.841 694.325 286.835L701.17 267.822L708.014 248.809C704.812 247.656 700.845 246.722 696.887 245.916L692.854 265.717ZM701.17 267.822L681.635 262.651L675.951 284.125L695.485 289.296L715.02 294.467L720.704 272.993L701.17 267.822ZM695.485 289.296L702.58 270.375C700.075 269.436 697.488 268.795 695.132 268.323L691.169 288.138L687.206 307.953C687.738 308.059 688.103 308.148 688.328 308.208C688.562 308.271 688.563 308.282 688.39 308.217L695.485 289.296ZM691.169 288.138L695.885 268.489C692.264 267.62 688.634 267.299 685.169 267.299V287.507V307.714C686.195 307.714 686.565 307.814 686.453 307.787L691.169 288.138ZM685.169 287.507V267.299C677.258 267.299 666.708 269.215 659.013 277.871L674.116 291.296L689.219 304.721C687.698 306.432 686.06 307.246 685.117 307.569C684.304 307.848 684.176 307.714 685.169 307.714V287.507ZM674.116 291.296L658.804 278.11C652.43 285.512 650.646 294.438 650.646 302.033H670.853H691.06C691.06 301.255 691.156 301.246 691.003 301.751C690.829 302.323 690.387 303.369 689.429 304.482L674.116 291.296ZM670.853 302.033H650.646V428.773H670.853H691.06V302.033H670.853ZM670.853 428.773V408.566H643.273V428.773V448.981H670.853V428.773ZM761.441 311.086H781.648C781.648 299.926 772.601 290.879 761.441 290.879V311.086ZM761.441 332.56V352.768C772.601 352.768 781.648 343.721 781.648 332.56H761.441ZM693.965 332.56H673.758C673.758 343.721 682.805 352.768 693.965 352.768V332.56ZM693.965 311.086V290.879C682.805 290.879 673.758 299.926 673.758 311.086H693.965ZM710.492 283.085V262.878C699.332 262.878 690.285 271.925 690.285 283.085H710.492ZM738.177 283.085H758.384C758.384 271.925 749.337 262.878 738.177 262.878V283.085ZM741.23 403.72L726.256 417.29C726.328 417.369 726.4 417.447 726.473 417.525L741.23 403.72ZM758.914 405.931L778.656 401.618C777.5 396.328 774.269 391.722 769.688 388.835C765.106 385.948 759.557 385.02 754.286 386.261L758.914 405.931ZM763.651 427.616L769.626 446.919C779.651 443.816 785.633 433.556 783.393 423.303L763.651 427.616ZM754.704 429.616L751.911 409.602C751.759 409.623 751.608 409.646 751.457 409.671L754.704 429.616ZM719.861 421.721L706.079 436.499C706.108 436.527 706.138 436.554 706.168 436.582L719.861 421.721ZM761.441 311.086H741.233V332.56H761.441H781.648V311.086H761.441ZM761.441 332.56V312.353H693.965V332.56V352.768H761.441V332.56ZM693.965 332.56H714.172V311.086H693.965H673.758V332.56H693.965ZM693.965 311.086V331.293H761.441V311.086V290.879H693.965V311.086ZM710.492 283.085V303.293H738.177V283.085V262.878H710.492V283.085ZM738.177 283.085H717.97V393.404H738.177H758.384V283.085H738.177ZM738.177 393.404H717.97C717.97 400.49 719.457 409.788 726.256 417.29L741.23 403.72L756.203 390.151C757.563 391.652 758.121 393.062 758.317 393.723C758.492 394.316 758.384 394.312 758.384 393.404H738.177ZM741.23 403.72L726.473 417.525C733.855 425.416 743.615 427.191 750.914 427.191V406.983V386.776C750.28 386.776 750.65 386.688 751.63 387.018C752.724 387.387 754.411 388.231 755.986 389.915L741.23 403.72ZM750.914 406.983V427.191C753.263 427.191 755.573 426.986 757.772 426.672L754.914 406.668L752.056 386.663C751.308 386.77 750.951 386.776 750.914 386.776V406.983ZM754.914 406.668L757.772 426.672C759.719 426.394 761.656 426.045 763.542 425.601L758.914 405.931L754.286 386.261C753.786 386.378 753.056 386.521 752.056 386.663L754.914 406.668ZM758.914 405.931L739.172 410.243L743.909 431.928L763.651 427.616L783.393 423.303L778.656 401.618L758.914 405.931ZM763.651 427.616L757.676 408.312C755.756 408.906 753.837 409.333 751.911 409.602L754.704 429.616L757.496 449.629C761.606 449.056 765.652 448.149 769.626 446.919L763.651 427.616ZM754.704 429.616L751.457 409.671C749.498 409.99 747.567 410.145 745.651 410.145V430.352V450.56C749.77 450.56 753.873 450.224 757.95 449.56L754.704 429.616ZM745.651 430.352V410.145C738.262 410.145 735.086 408.272 733.553 406.859L719.861 421.721L706.168 436.582C717.127 446.678 731.144 450.56 745.651 450.56V430.352ZM719.861 421.721L733.642 406.942C732.216 405.612 730.699 403.431 730.699 397.931H710.492H690.285C690.285 412.501 695.013 426.179 706.079 436.499L719.861 421.721ZM710.492 397.931H730.699V283.085H710.492H690.285V397.931H710.492Z" fill="#CBEAD6" mask="url(#path-5-outside-1_793_1016)"/>
</g>
</g>
<defs>
<filter id="filter0_f_793_1016" x="-11.0399" y="205.082" width="834.171" height="284.748" filterUnits="userSpaceOnUse" color-interpolation-filters="sRGB">
<feFlood flood-opacity="0" result="BackgroundImageFix"/>
<feBlend mode="normal" in="SourceGraphic" in2="BackgroundImageFix" result="shape"/>
<feGaussianBlur stdDeviation="19.6347" result="effect1_foregroundBlur_793_1016"/>
</filter>
</defs>
</svg>
