<svg width="1227" height="524" viewBox="0 0 1227 524" fill="none" xmlns="http://www.w3.org/2000/svg">
<g opacity="0.2">
<path d="M1460.94 268.085L1431.35 290.675C1414.92 303.224 1401.97 319.779 1393.77 338.755L1361.05 414.376C1349.61 440.826 1328.62 461.995 1302.26 473.658C1293.06 477.728 1283.37 480.569 1273.43 482.107L1112.92 506.962C1099.18 509.09 1086.13 514.443 1074.85 522.583C1062.67 531.379 1052.94 543.147 1046.59 556.765L999.602 657.518C989.894 678.336 973.219 695.113 952.461 704.95C943.922 708.996 934.846 711.794 925.512 713.257L766.649 738.161C752.239 740.42 738.475 745.729 726.278 753.733C705.482 767.381 690.355 788.123 683.72 812.09L676.768 837.202C673.218 850.024 667.574 862.173 660.064 873.158L651.31 885.963C645.352 894.678 638.277 902.576 630.267 909.454L578.621 953.801" stroke="white" stroke-opacity="0.16" stroke-width="12.0762"/>
<g opacity="0.2">
<path d="M52.0539 810.527L148.876 739.39L228.444 675.457C239.343 666.7 248.441 656.218 255.316 644.499L269.14 620.936C273.521 613.469 276.12 605.215 276.766 596.717C277.352 589.007 279.547 581.49 283.231 574.574L288.689 564.329C294.094 554.182 301.561 545.094 310.693 537.547C322.68 527.64 337.203 520.663 352.95 517.247L369.926 513.564L480.706 496.167L513.548 489.966C533.595 486.18 552.113 477.536 567.19 464.927C578.388 455.562 587.425 444.228 593.78 431.58L648.955 321.761C655.015 309.698 664.755 299.537 677.006 292.495C682.579 289.291 688.595 286.778 694.899 285.02L702.889 282.79C709.244 281.018 715.752 279.723 722.348 278.919L770.106 273.096L861.891 257.128C880.483 253.893 897.929 246.668 912.811 236.038C927.138 225.804 938.707 212.689 946.648 197.679L988.873 117.862C996.326 103.775 1006.91 91.306 1019.96 81.2509L1033.81 70.5761C1040.66 65.299 1048.12 60.7331 1056.07 56.9599L1286.34 -52.3438L1326.22 27.7072L181.12 929.179L52.0539 810.527Z" fill="url(#paint0_linear_561_15437)"/>
<path d="M311.012 537.872C322.941 528.014 337.394 521.07 353.064 517.671L370.021 513.993L480.791 496.596L480.807 496.594L513.648 490.392C533.778 486.591 552.372 477.912 567.511 465.25C578.755 455.847 587.83 444.466 594.211 431.767L649.386 321.947C655.408 309.96 665.087 299.863 677.262 292.865C682.8 289.681 688.778 287.184 695.042 285.437L703.032 283.207C709.363 281.441 715.845 280.151 722.416 279.35L770.174 273.528L770.2 273.524L861.985 257.556C880.65 254.309 898.164 247.054 913.105 236.383C927.488 226.109 939.103 212.941 947.075 197.873L989.3 118.056C996.724 104.024 1007.27 91.6024 1020.27 81.5859L1034.12 70.9107C1040.94 65.654 1048.38 61.1058 1056.29 57.347L1286.12 -51.7459L1325.64 27.5866L181.14 928.587L52.7627 810.566L149.175 739.731L149.191 739.719L228.759 675.786C239.699 666.995 248.832 656.473 255.734 644.709L269.558 621.146C273.97 613.625 276.588 605.312 277.239 596.753C277.821 589.098 280 581.635 283.658 574.769L289.115 564.525C294.494 554.427 301.925 545.383 311.012 537.872Z" stroke="white" stroke-opacity="0.16" stroke-width="0.910367"/>
</g>
<path d="M1358.7 212.589L1329.11 235.179C1312.67 247.728 1299.73 264.283 1291.52 283.259L1258.81 358.88C1247.37 385.33 1226.37 406.499 1200.02 418.162C1190.82 422.232 1181.13 425.072 1171.19 426.611L1010.67 451.466C996.933 453.593 983.889 458.947 972.612 467.087C960.427 475.883 950.696 487.651 944.345 501.269L897.359 602.022C887.651 622.84 870.977 639.617 850.218 649.454C841.679 653.5 832.604 656.298 823.27 657.761L664.406 682.665C649.996 684.923 636.233 690.233 624.036 698.237C603.24 711.885 588.113 732.627 581.478 756.594L574.525 781.706C570.975 794.528 565.332 806.676 557.822 817.661L549.068 830.467C543.11 839.182 536.035 847.08 528.025 853.958L476.379 898.305" stroke="white" stroke-opacity="0.26" stroke-width="12.0762"/>
<path d="M1256.45 157.101L1226.87 179.69C1210.43 192.239 1197.49 208.795 1189.28 227.771L1156.57 303.392C1145.13 329.841 1124.13 351.011 1097.78 362.674C1088.58 366.743 1078.89 369.584 1068.95 371.123L908.432 395.977C894.691 398.105 881.647 403.459 870.37 411.599C858.185 420.395 848.454 432.163 842.103 445.781L795.117 546.534C785.409 567.351 768.735 584.129 747.976 593.966C739.437 598.012 730.362 600.81 721.028 602.273L562.164 627.176C547.754 629.435 533.99 634.744 521.794 642.749C500.997 656.396 485.871 677.138 479.235 701.106L472.283 726.217C468.733 739.039 463.089 751.188 455.58 762.173L446.826 774.979C440.867 783.694 433.793 791.592 425.783 798.47L374.137 842.816" stroke="white" stroke-opacity="0.26" stroke-width="12.0762"/>
<path d="M1251.93 97.4114L1153.32 127.129C1119.23 137.404 1091.4 162.192 1077.26 194.87L1054.32 247.896C1042.88 274.345 1021.89 295.514 995.532 307.178C986.336 311.247 976.644 314.088 966.707 315.627L806.189 340.481C792.448 342.609 779.404 347.963 768.127 356.103C755.942 364.899 746.211 376.667 739.86 390.285L692.874 491.038C683.166 511.855 666.492 528.633 645.733 538.47C637.194 542.516 628.118 545.314 618.785 546.777L459.921 571.68C445.511 573.939 431.747 579.248 419.55 587.253C398.754 600.9 383.628 621.642 376.992 645.61L370.04 670.721C366.49 683.543 360.846 695.692 353.337 706.677L343.679 720.804C338.316 728.649 332.047 735.834 325.001 742.21L209.904 846.376" stroke="white" stroke-opacity="0.26" stroke-width="12.0762"/>
<path d="M1292.54 -59.7297L1036.72 68.1372C1011.27 80.8592 991.121 102.153 979.825 128.266L952.082 192.397C940.64 218.847 919.646 240.016 893.29 251.679C884.093 255.749 874.401 258.59 864.464 260.129L703.947 284.983C690.205 287.111 677.162 292.464 665.885 300.605C653.7 309.401 643.968 321.168 637.618 334.787L590.632 435.54C580.924 456.357 564.249 473.134 543.491 482.972C534.952 487.018 525.876 489.816 516.542 491.279L357.679 516.182C343.269 518.441 329.505 523.75 317.308 531.755C296.512 545.402 281.386 566.144 274.75 590.112L267.798 615.223C264.248 628.045 258.604 640.194 251.094 651.179L244.865 660.291C237.252 671.428 227.828 681.212 216.984 689.237L6.74213 844.834" stroke="white" stroke-width="6.87796"/>
<path d="M1603.02 300.347L1573.43 322.936C1557 335.485 1544.05 352.041 1535.85 371.017L1503.13 446.638C1491.69 473.087 1470.7 494.257 1444.34 505.92C1435.14 509.989 1425.45 512.83 1415.51 514.369L1255 539.223C1241.26 541.351 1228.21 546.705 1216.93 554.845C1204.75 563.641 1195.02 575.409 1188.67 589.027L1141.68 689.78C1131.97 710.598 1115.3 727.375 1094.54 737.212C1086 741.258 1076.93 744.056 1067.59 745.519L908.729 770.422C894.319 772.681 880.555 777.99 868.358 785.995C847.562 799.643 832.435 820.385 825.8 844.352L818.848 869.463C815.298 882.285 809.654 894.434 802.144 905.419L793.39 918.225C787.432 926.94 780.357 934.838 772.347 941.716L720.701 986.063" stroke="white" stroke-opacity="0.16" stroke-width="12.073"/>
</g>
<defs>
<linearGradient id="paint0_linear_561_15437" x1="641.821" y1="374.926" x2="713.599" y2="482.191" gradientUnits="userSpaceOnUse">
<stop stop-color="white"/>
<stop offset="1" stop-color="white" stop-opacity="0"/>
</linearGradient>
</defs>
</svg>
