<svg width="61" height="60" viewBox="0 0 61 60" fill="none" xmlns="http://www.w3.org/2000/svg">
<path d="M60.9577 29.7337C60.9636 29.7278 60.9636 29.7182 60.9577 29.7123C57.351 26.3414 56.1607 21.1113 57.9494 16.5129C57.9502 16.5109 57.9506 16.5087 57.9506 16.5066C57.9506 16.4989 57.9456 16.4922 57.9383 16.4899C53.2271 15.0192 49.8843 10.8321 49.4931 5.91126C49.4925 5.90288 49.4855 5.89636 49.4771 5.89636C49.4763 5.89636 49.4755 5.89642 49.4747 5.89654C44.5918 6.61428 39.7574 4.28792 37.2758 0.0160803C37.2699 0.00722042 37.2578 0.00490271 37.249 0.0108634C33.1611 2.77303 27.802 2.77303 23.7141 0.0108682C23.7053 0.00490345 23.6932 0.00721858 23.6873 0.0160803C21.2057 4.28256 16.3766 6.61428 11.4884 5.89654C11.4876 5.89642 11.4868 5.89636 11.486 5.89636C11.4776 5.89636 11.4706 5.90288 11.4699 5.91127C11.0789 10.8307 7.73789 15.0169 3.02875 16.4887C3.01987 16.4915 3.01493 16.501 3.01787 16.5098C4.80822 21.1143 3.61823 26.3407 0.0107311 29.7123C0.00480714 29.7182 0.00480714 29.7278 0.0107311 29.7337C3.61744 33.1046 4.80769 38.3348 3.01906 42.9332C3.01828 42.9352 3.01787 42.9374 3.01787 42.9395C3.01787 42.9471 3.02287 42.9539 3.03014 42.9562C7.74137 44.4268 11.0841 48.614 11.4753 53.5348C11.476 53.5432 11.483 53.5497 11.4914 53.5497C11.4922 53.5497 11.4929 53.5497 11.4937 53.5495C16.3766 52.8318 21.211 55.1582 23.6927 59.43C23.6986 59.4389 23.7106 59.4412 23.7194 59.4352C27.8074 56.673 33.1664 56.673 37.2544 59.4352C37.2632 59.4412 37.2752 59.4389 37.2811 59.43C39.7628 55.1635 44.5918 52.8318 49.4801 53.5495C49.4808 53.5497 49.4816 53.5497 49.4824 53.5497C49.4908 53.5497 49.4978 53.5432 49.4985 53.5348C49.8896 48.6154 53.2305 44.4292 57.9397 42.9574C57.9486 42.9546 57.9535 42.9451 57.9506 42.9362C56.1602 38.3317 57.3502 33.1054 60.9577 29.7337Z" fill="#CBEAD6" fill-opacity="0.8"/>
<path d="M30.351 42.9999C41.8208 42.9999 40.5422 33.636 40.3918 30.3267C40.0909 24.6482 43.7011 17.2398 39.5268 16.4501C36.6688 15.9236 35.8415 21.3765 35.3902 24.3473C35.3902 24.3473 33.0962 22.4294 31.1031 24.3473C29.9749 23.1439 26.7408 23.4072 26.44 25.3627C24.6725 19.6842 23.7323 16.3373 21.1751 17.0142C17.6778 17.9167 20.7614 25.5507 21.7392 28.0327C17.7906 30.2139 17.753 42.9999 30.351 42.9999Z" fill="#CBEAD6" stroke="#2A5BA0" stroke-width="2.09495" stroke-miterlimit="10" stroke-linejoin="bevel"/>
<path d="M31.1794 28.0335C31.0665 26.7549 31.1417 25.0627 31.1417 24.3481L31.1794 28.0335Z" fill="#CBEAD6"/>
<path d="M31.1794 28.0335C31.0665 26.7549 31.1417 25.0627 31.1417 24.3481" stroke="#2A5BA0" stroke-width="2.09495" stroke-miterlimit="10" stroke-linejoin="bevel"/>
<path d="M35.3922 24.3472C35.4674 27.8821 36.4451 33.2974 33.1734 33.2974C32.1957 33.2974 30.8418 33.0342 30.6162 30.5898" fill="#CBEAD6"/>
<path d="M35.3922 24.3472C35.4674 27.8821 36.4451 33.2974 33.1734 33.2974C32.1957 33.2974 30.8418 33.0342 30.6162 30.5898" stroke="#2A5BA0" stroke-width="2.09495" stroke-miterlimit="10" stroke-linejoin="bevel"/>
<path d="M21.7402 28.0341C21.7402 28.0341 29.4119 23.6342 31.1417 28.0341C32.5332 31.5691 24.5607 33.675 24.5607 33.675C24.5607 33.675 30.0512 33.675 31.4426 37.6989" fill="#CBEAD6"/>
<path d="M21.7402 28.0341C21.7402 28.0341 29.4119 23.6342 31.1417 28.0341C32.5332 31.5691 24.5607 33.675 24.5607 33.675C24.5607 33.675 30.0512 33.675 31.4426 37.6989" stroke="#2A5BA0" stroke-width="2.09495" stroke-miterlimit="10" stroke-linejoin="bevel"/>
</svg>
