<svg width="973" height="485" viewBox="0 0 973 485" fill="none" xmlns="http://www.w3.org/2000/svg">
<g opacity="0.4">
<path d="M1281.91 119.635L1253.46 145.316C1241.53 156.085 1232.56 169.731 1227.4 184.952L1200.43 264.581C1192.84 286.987 1177.08 305.709 1156.31 317.015L1151.49 319.635C1144.21 323.596 1136.44 326.577 1128.38 328.502L983.003 363.207C970.617 366.164 959.111 372.022 949.432 380.297C939.016 389.204 931.051 400.625 926.292 413.477L890.874 509.136C883.599 528.784 869.693 545.275 851.556 555.764C844.067 560.095 835.992 563.323 827.581 565.347L685.074 599.651C672.078 602.78 659.903 608.654 649.367 616.88C631.484 630.841 619.279 650.82 615.019 673.103L609.979 699.463C608.041 709.604 604.445 719.357 599.337 728.33L589.849 744.997C585.787 752.131 580.809 758.703 575.041 764.545L529.8 810.366" stroke="white" stroke-opacity="0.16" stroke-width="9.40441"/>
<g opacity="0.2">
<path d="M40.4576 717.899L123.292 645.856L193.041 579.681C200.937 572.19 207.33 563.469 211.925 553.924L223.978 528.88C227.414 521.74 229.173 514.011 229.138 506.202C229.106 499.116 230.551 492.089 233.394 485.503L237.607 475.747C241.779 466.084 247.903 457.237 255.654 449.677C265.829 439.753 278.525 432.321 292.594 428.052L307.762 423.45L407.227 399.477L439.08 390.748C455.434 386.266 470.197 377.843 481.845 366.348L484.866 363.368C493.516 354.831 500.246 344.799 504.666 333.853L547.448 227.892C552.076 216.431 560.188 206.439 570.813 199.113C575.647 195.78 580.933 193.045 586.536 190.979L594.897 187.896C599.709 186.122 604.669 184.71 609.729 183.674L654.054 174.602L739.63 152.472C754.144 148.719 767.496 141.864 778.601 132.465L783.524 128.298C794.214 119.25 802.538 108.084 807.867 95.6425L842.911 13.8305C847.805 2.40645 855.228 -7.95361 864.707 -16.5883L880.323 -30.8134C885.298 -35.3449 890.795 -39.3615 896.717 -42.7914L1099.65 -160.33L1141.79 -90.1159L166.52 816.867L40.4576 717.899Z" fill="url(#paint0_linear_561_15859)"/>
<path d="M255.922 449.91C266.055 440.027 278.699 432.626 292.71 428.375L307.866 423.776L407.321 399.806L407.332 399.803L439.185 391.073C455.602 386.574 470.422 378.119 482.114 366.58L485.135 363.6C493.819 355.03 500.574 344.96 505.011 333.971L547.794 228.01C552.396 216.61 560.465 206.672 571.034 199.385C575.841 196.07 581.099 193.35 586.673 191.294L595.034 188.212C599.828 186.445 604.769 185.038 609.808 184.006L654.134 174.933L654.144 174.932L654.154 174.929L739.73 152.799C754.3 149.032 767.703 142.151 778.85 132.715L783.773 128.548C794.504 119.465 802.86 108.256 808.21 95.7668L843.254 13.9552C848.129 2.57506 855.523 -7.74581 864.966 -16.3472L880.582 -30.572C885.537 -35.086 891.014 -39.0867 896.913 -42.5034L1099.52 -159.851L1141.33 -90.1744L166.499 816.404L41.009 717.886L123.545 646.103L123.557 646.093L193.306 579.918C201.232 572.398 207.65 563.644 212.262 554.061L224.315 529.018C227.773 521.834 229.542 514.057 229.507 506.2C229.475 499.157 230.911 492.174 233.737 485.629L237.949 475.872C242.104 466.249 248.203 457.439 255.922 449.91Z" stroke="white" stroke-opacity="0.16" stroke-width="0.708954"/>
</g>
<path d="M1184.87 76.3984L1156.42 102.08C1144.49 112.848 1135.52 126.494 1130.36 141.715L1103.39 221.345C1095.8 243.75 1080.04 262.472 1059.26 273.779L1054.45 276.398C1047.17 280.359 1039.4 283.341 1031.34 285.265L885.961 319.971C873.575 322.928 862.069 328.785 852.39 337.061C841.974 345.967 834.009 357.389 829.25 370.241L793.832 465.9C786.557 485.547 772.651 502.039 754.514 512.527C747.025 516.858 738.95 520.086 730.539 522.111L588.032 556.415C575.036 559.543 562.861 565.418 552.325 573.643C534.442 587.604 522.237 607.583 517.977 629.867L512.937 656.226C510.999 666.368 507.403 676.121 502.295 685.094L492.807 701.761C488.745 708.895 483.767 715.467 477.999 721.309L432.758 767.129" stroke="white" stroke-opacity="0.26" stroke-width="9.40441"/>
<path d="M1087.83 33.166L1059.38 58.8472C1047.45 69.6158 1038.48 83.2618 1033.32 98.4831L1006.35 178.113C998.755 200.518 983.001 219.24 962.222 230.547L957.408 233.166C950.128 237.127 942.357 240.108 934.296 242.033L788.919 276.739C776.533 279.695 765.027 285.553 755.348 293.829C744.932 302.735 736.967 314.157 732.208 327.008L696.79 422.667C689.515 442.315 675.609 458.806 657.472 469.295C649.983 473.626 641.908 476.854 633.497 478.879L490.99 513.183C477.994 516.311 465.819 522.185 455.283 530.411C437.4 544.372 425.195 564.351 420.935 586.634L415.895 612.994C413.957 623.135 410.361 632.888 405.253 641.861L395.765 658.528C391.703 665.663 386.725 672.234 380.957 678.076L335.716 723.897" stroke="white" stroke-opacity="0.26" stroke-width="9.40441"/>
<path d="M1079.33 -21.0254L984.826 16.0672C959.025 26.1935 939.005 47.1855 930.113 73.4371L909.299 134.88C901.709 157.285 885.955 176.007 865.176 187.314L860.362 189.933C853.082 193.894 845.311 196.875 837.25 198.8L691.873 233.506C679.487 236.463 667.98 242.32 658.302 250.596C647.886 259.502 639.92 270.924 635.162 283.776L599.744 379.434C592.469 399.082 578.563 415.573 560.426 426.062C552.937 430.393 544.862 433.621 536.451 435.646L393.944 469.95C380.948 473.078 368.773 478.952 358.237 487.178C340.354 501.139 328.149 521.118 323.889 543.401L318.849 569.761C316.911 579.902 313.315 589.655 308.207 598.628L298.102 616.378C294.447 622.799 290.048 628.767 284.996 634.158L186.626 739.131" stroke="white" stroke-opacity="0.26" stroke-width="9.40441"/>
<path d="M1104.75 -167.525L876.391 -28.9714C857.469 -17.4908 843.203 0.295402 836.102 21.2576L812.258 91.646C804.668 114.051 788.914 132.773 768.135 144.08L763.32 146.699C756.041 150.66 748.27 153.642 740.209 155.566L594.831 190.272C582.446 193.229 570.939 199.086 561.261 207.362C550.845 216.268 542.879 227.69 538.121 240.542L502.703 336.201C495.428 355.849 481.522 372.34 463.385 382.828C455.896 387.16 447.821 390.387 439.41 392.412L296.903 426.716C283.907 429.844 271.732 435.719 261.196 443.945C243.313 457.906 231.108 477.884 226.848 500.168L221.808 526.527C219.87 536.669 216.274 546.422 211.166 555.395L203.401 569.034C198.21 578.153 191.529 586.339 183.635 593.253L1.76465 752.545" stroke="white" stroke-width="5.35625"/>
<path d="M1413.48 138.732L1385.03 164.414C1373.1 175.182 1364.13 188.828 1358.97 204.05L1332 283.679C1324.41 306.084 1308.65 324.806 1287.87 336.113L1283.06 338.732C1275.78 342.693 1268.01 345.675 1259.95 347.599L1114.57 382.305C1102.19 385.262 1090.68 391.119 1081 399.395C1070.59 408.301 1062.62 419.723 1057.86 432.575L1022.44 528.234C1015.17 547.881 1001.26 564.373 983.126 574.861C975.636 579.192 967.561 582.42 959.15 584.445L816.643 618.749C803.648 621.877 791.472 627.752 780.936 635.978C763.054 649.939 750.848 669.917 746.588 692.201L741.549 718.56C739.61 728.702 736.014 738.455 730.906 747.428L721.418 764.095C717.356 771.229 712.378 777.801 706.61 783.643L661.369 829.463" stroke="white" stroke-opacity="0.16" stroke-width="9.40194"/>
</g>
<defs>
<linearGradient id="paint0_linear_561_15859" x1="544.857" y1="276.977" x2="618.373" y2="369.418" gradientUnits="userSpaceOnUse">
<stop stop-color="white"/>
<stop offset="1" stop-color="white" stop-opacity="0"/>
</linearGradient>
</defs>
</svg>
