<svg width="230" height="241" viewBox="0 0 230 241" fill="none" xmlns="http://www.w3.org/2000/svg">
<path opacity="0.11" d="M151.871 -15.9523C152.435 -15.4477 152.999 -14.907 153.563 -14.4024C71.742 -33.0369 12.245 -16.6732 8.82405 -15.7L-5.24784 45.8261C27.0223 75.4538 46.8781 96.7195 61.1969 117.012C76.5737 138.818 86.096 160.336 92.021 186.72C95.7947 203.444 98.1576 222.619 99.2157 245.327C93.8549 234.477 88.1768 224.169 82.1813 214.437C62.7487 182.827 40.4594 157.993 15.9834 140.584C3.28699 131.573 -9.97374 124.581 -23.4813 119.859C-30.7113 117.336 -38.047 115.426 -45.418 114.165V188.378C-38.3997 190.937 -31.3461 194.722 -24.2925 199.768C-7.61079 211.626 8.11869 229.467 22.508 252.824C28.962 263.312 35.0281 274.738 40.6357 286.993H170.316C170.915 240.497 168.094 203.156 160.793 170.609C152.752 134.853 139.28 104.433 118.401 74.8411C112.582 66.6232 106.163 58.3693 98.863 49.827C115.404 51.2327 132.05 54.1522 148.414 58.5134C174.019 65.3256 199.2 75.7062 223.218 89.4027L273.827 46.4389C262.224 11.1163 244.907 -19.5927 221.243 -46.7334H110.678C126.266 -37.1458 139.95 -26.8735 151.871 -15.9523Z" fill="white"/>
</svg>
