<svg width="1259" height="338" viewBox="0 0 1259 338" fill="none" xmlns="http://www.w3.org/2000/svg">
<path d="M0 0.359375H1207.4C1235.18 0.359375 1257.7 22.8831 1257.7 50.6675V286.756C1257.7 314.541 1235.18 337.065 1207.4 337.065H1044.61M831.522 337.065V139.425M831.522 337.065H657.24M831.522 337.065H1044.61M482.958 337.065H134.395H1044.61M482.958 337.065V189.734C482.958 161.949 460.434 139.425 432.65 139.425H417.917C390.133 139.425 367.609 116.902 367.609 89.1173V52.1049M482.958 337.065H657.24M657.24 337.065V255.853C657.24 242.159 646.139 231.058 632.445 231.058H629.93C617.625 231.058 607.651 221.083 607.651 208.779C607.651 196.474 617.625 186.5 629.93 186.5H640.71C658.968 186.5 673.77 171.698 673.77 153.44V113.553M1044.61 337.065V258.009C1044.61 230.225 1067.14 207.701 1094.92 207.701H1108.58C1136.36 207.701 1158.88 185.177 1158.88 157.393V121.458C1158.88 93.6738 1136.36 71.1501 1108.58 71.1501H968.072C942.074 71.1501 920.998 92.2259 920.998 118.224V138.168C920.998 153.152 908.852 165.298 893.868 165.298C878.884 165.298 866.737 153.152 866.737 138.168V102.413C866.737 74.6286 844.214 52.1049 816.429 52.1049H767.559C754.659 52.1049 744.201 41.6475 744.201 28.7475" stroke="url(#paint0_radial_561_15238)" stroke-opacity="0.35" stroke-width="0.718688" stroke-miterlimit="16" stroke-dasharray="2.87 2.87"/>
<defs>
<radialGradient id="paint0_radial_561_15238" cx="0" cy="0" r="1" gradientUnits="userSpaceOnUse" gradientTransform="translate(628.852 168.712) scale(628.852 168.353)">
<stop stop-color="#B33E2C"/>
<stop offset="1" stop-color="#4D1B13"/>
</radialGradient>
</defs>
</svg>
