<svg width="37" height="57" viewBox="0 0 37 57" fill="none" xmlns="http://www.w3.org/2000/svg">
<path d="M0.0237784 54.3402C-0.075257 54.7098 0.144077 55.0897 0.513674 55.1887L6.53661 56.8026C6.9062 56.9017 7.28611 56.6823 7.38514 56.3127C7.48418 55.9431 7.26484 55.5632 6.89525 55.4642L1.54153 54.0296L2.97608 48.6759C3.07512 48.3063 2.85578 47.9264 2.48619 47.8274C2.11659 47.7283 1.73669 47.9477 1.63765 48.3173L0.0237784 54.3402ZM36.021 0.693787C36.021 0.31115 35.7108 0.000965643 35.3282 0.000965858C34.9455 0.000966074 34.6354 0.311151 34.6354 0.693787L35.3282 0.693789L36.021 0.693787ZM35.3282 2.52282L34.6354 2.52282L35.3282 2.52282ZM7.61501 50.5232L7.96142 51.1232L7.61501 50.5232ZM2.7699 54.1204C3.10128 53.9291 3.21482 53.5054 3.0235 53.174C2.83219 52.8427 2.40846 52.7291 2.07709 52.9204L2.4235 53.5204L2.7699 54.1204ZM5.5381 50.9222C5.20672 51.1136 5.09318 51.5373 5.2845 51.8687C5.47582 52.2 5.89954 52.3136 6.23091 52.1223L5.8845 51.5222L5.5381 50.9222ZM9.22463 50.3717C9.55089 50.1718 9.65334 49.7453 9.45344 49.419C9.25354 49.0927 8.827 48.9903 8.50073 49.1902L8.86268 49.781L9.22463 50.3717ZM10.9043 47.6297C10.5889 47.8464 10.5089 48.2777 10.7256 48.5931C10.9423 48.9085 11.3736 48.9885 11.689 48.7718L11.2966 48.2008L10.9043 47.6297ZM14.0657 47.0456C14.3693 46.8127 14.4266 46.3778 14.1937 46.0742C13.9608 45.7706 13.5259 45.7133 13.2223 45.9462L13.644 46.4959L14.0657 47.0456ZM15.4497 44.1428C15.1588 44.3913 15.1243 44.8286 15.3728 45.1196C15.6213 45.4105 16.0586 45.445 16.3496 45.1965L15.8997 44.6697L15.4497 44.1428ZM18.5328 43.2308C18.8103 42.9674 18.8218 42.5289 18.5584 42.2514C18.295 41.9738 17.8565 41.9623 17.579 42.2257L18.0559 42.7283L18.5328 43.2308ZM19.6051 40.1993C19.3418 40.4769 19.3533 40.9154 19.6309 41.1788C19.9084 41.4422 20.3469 41.4306 20.6103 41.1531L20.1077 40.6762L19.6051 40.1993ZM22.576 38.9695C22.8245 38.6785 22.79 38.2412 22.499 37.9927C22.208 37.7442 21.7707 37.7787 21.5223 38.0697L22.0491 38.5196L22.576 38.9695ZM23.3252 35.8427C23.0923 36.1463 23.1496 36.5812 23.4532 36.8141C23.7568 37.047 24.1917 36.9897 24.4246 36.6861L23.8749 36.2644L23.3252 35.8427ZM26.1513 34.3089C26.3681 33.9936 26.2881 33.5622 25.9727 33.3455C25.6574 33.1288 25.226 33.2088 25.0093 33.5242L25.5803 33.9165L26.1513 34.3089ZM26.5698 31.1209C26.3699 31.4472 26.4723 31.8737 26.7986 32.0736C27.1249 32.2735 27.5514 32.1711 27.7513 31.8449L27.1606 31.4829L26.5698 31.1209ZM29.2203 29.3005C29.4029 28.9642 29.2783 28.5436 28.9421 28.361C28.6058 28.1784 28.1852 28.303 28.0026 28.6393L28.6115 28.9699L29.2203 29.3005ZM29.3037 26.0862C29.1389 26.4316 29.2853 26.8451 29.6307 27.0098C29.976 27.1746 30.3895 27.0282 30.5543 26.6829L29.929 26.3845L29.3037 26.0862ZM31.7496 23.9989C31.8961 23.6454 31.7283 23.2401 31.3748 23.0936C31.0213 22.9471 30.616 23.1149 30.4695 23.4684L31.1096 23.7336L31.7496 23.9989ZM31.4967 20.7936C31.3689 21.1542 31.5577 21.5502 31.9184 21.678C32.2791 21.8057 32.675 21.6169 32.8028 21.2563L32.1497 21.0249L31.4967 20.7936ZM33.711 18.4621C33.8197 18.0952 33.6104 17.7097 33.2436 17.601C32.8767 17.4923 32.4912 17.7016 32.3825 18.0685L33.0467 18.2653L33.711 18.4621ZM33.1243 15.3005C33.035 15.6726 33.2642 16.0466 33.6362 16.136C34.0083 16.2253 34.3823 15.9961 34.4717 15.6241L33.798 15.4623L33.1243 15.3005ZM35.0824 12.7505C35.1521 12.3743 34.9036 12.0128 34.5274 11.9431C34.1512 11.8733 33.7897 12.1218 33.7199 12.4981L34.4012 12.6243L35.0824 12.7505ZM34.168 9.66737C34.1181 10.0467 34.3852 10.3947 34.7646 10.4446C35.1439 10.4945 35.4919 10.2274 35.5418 9.84805L34.8549 9.75771L34.168 9.66737ZM35.8484 6.92663C35.8784 6.54517 35.5934 6.21165 35.212 6.18168C34.8305 6.15172 34.497 6.43667 34.467 6.81813L35.1577 6.87238L35.8484 6.92663ZM34.6166 3.95635C34.6067 4.33885 34.9087 4.65703 35.2912 4.66702C35.6737 4.677 35.9918 4.37501 36.0018 3.99251L35.3092 3.97443L34.6166 3.95635ZM36.021 2.06556C36.021 1.68293 35.7108 1.37274 35.3282 1.37274C34.9455 1.37274 34.6354 1.68293 34.6354 2.06556L35.3282 2.06556L36.021 2.06556ZM34.6354 1.15105C34.6354 1.53368 34.9455 1.84387 35.3282 1.84387C35.7108 1.84387 36.021 1.53368 36.021 1.15104L35.3282 1.15105L34.6354 1.15105ZM0.692993 54.5195L1.0394 55.1195L2.7699 54.1204L2.4235 53.5204L2.07709 52.9204L0.346585 53.9195L0.692993 54.5195ZM5.8845 51.5222L6.23091 52.1223L7.96142 51.1232L7.61501 50.5232L7.2686 49.9232L5.5381 50.9222L5.8845 51.5222ZM7.61501 50.5232L7.96142 51.1232C8.3865 50.8777 8.80759 50.6272 9.22463 50.3717L8.86268 49.781L8.50073 49.1902C8.09396 49.4394 7.68323 49.6838 7.2686 49.9232L7.61501 50.5232ZM11.2966 48.2008L11.689 48.7718C12.4984 48.2157 13.2908 47.64 14.0657 47.0456L13.644 46.4959L13.2223 45.9462C12.4666 46.5259 11.6938 47.0873 10.9043 47.6297L11.2966 48.2008ZM15.8997 44.6697L16.3496 45.1965C17.0959 44.5592 17.8238 43.9037 18.5328 43.2308L18.0559 42.7283L17.579 42.2257C16.8875 42.8819 16.1776 43.5212 15.4497 44.1428L15.8997 44.6697ZM20.1077 40.6762L20.6103 41.1531C21.2854 40.4416 21.9408 39.7134 22.576 38.9695L22.0491 38.5196L21.5223 38.0697C20.9027 38.7953 20.2635 39.5054 19.6051 40.1993L20.1077 40.6762ZM23.8749 36.2644L24.4246 36.6861C25.0212 35.9084 25.5969 35.1157 26.1513 34.3089L25.5803 33.9165L25.0093 33.5242C24.4686 34.3111 23.9071 35.0842 23.3252 35.8427L23.8749 36.2644ZM27.1606 31.4829L27.7513 31.8449C28.2631 31.0097 28.7529 30.1613 29.2203 29.3005L28.6115 28.9699L28.0026 28.6393C27.5467 29.4788 27.069 30.3063 26.5698 31.1209L27.1606 31.4829ZM29.929 26.3845L30.5543 26.6829C30.9758 25.7993 31.3744 24.9043 31.7496 23.9989L31.1096 23.7336L30.4695 23.4684C30.1036 24.3516 29.7148 25.2245 29.3037 26.0862L29.929 26.3845ZM32.1497 21.0249L32.8028 21.2563C33.1295 20.3342 33.4324 19.4025 33.711 18.4621L33.0467 18.2653L32.3825 18.0685C32.1107 18.9856 31.8153 19.8942 31.4967 20.7936L32.1497 21.0249ZM33.798 15.4623L34.4717 15.6241C34.6999 14.6736 34.9036 13.7155 35.0824 12.7505L34.4012 12.6243L33.7199 12.4981C33.5456 13.4392 33.3469 14.3736 33.1243 15.3005L33.798 15.4623ZM34.8549 9.75771L35.5418 9.84805C35.6692 8.87979 35.7715 7.9057 35.8484 6.92663L35.1577 6.87238L34.467 6.81813C34.392 7.77302 34.2922 8.72305 34.168 9.66737L34.8549 9.75771ZM35.3092 3.97443L36.0018 3.99251C36.0146 3.50359 36.021 3.01366 36.021 2.52282L35.3282 2.52282L34.6354 2.52282C34.6354 3.00159 34.6291 3.47947 34.6166 3.95635L35.3092 3.97443ZM35.3282 2.52282L36.021 2.52282L36.021 2.06556L35.3282 2.06556L34.6354 2.06556L34.6354 2.52282L35.3282 2.52282ZM35.3282 1.15105L36.021 1.15104L36.021 0.693787L35.3282 0.693789L34.6354 0.693787L34.6354 1.15105L35.3282 1.15105Z" fill="#FD7E6B"/>
</svg>
