<svg width="14" height="10" viewBox="0 0 14 10" fill="none" xmlns="http://www.w3.org/2000/svg">
<path d="M4.27464 0.172483C4.35835 0.0689508 4.48037 0.00653124 4.61088 0.000496637C4.74139 -0.00563235 4.86844 0.0451912 4.96083 0.140519C5.05314 0.235846 5.1025 0.366816 5.09656 0.50146C5.09062 0.636201 5.03011 0.762083 4.92976 0.848354L1.5872 4.30063H12.6352C12.7958 4.30949 12.9407 4.40294 13.0186 4.54805C13.0965 4.69307 13.0965 4.86931 13.0186 5.0144C12.9407 5.15951 12.7958 5.25296 12.6352 5.26172H1.5872L4.93491 8.71014C5.01918 8.80122 5.06615 8.9222 5.06615 9.04808C5.06615 9.17395 5.01918 9.29501 4.93491 9.38601C4.84808 9.47587 4.73027 9.52632 4.60734 9.52632C4.48442 9.52632 4.36651 9.47587 4.27978 9.38601L0.139371 5.11448V5.11457C0.0503511 5.02613 -8.58307e-06 4.90412 -8.58307e-06 4.77664C-8.58307e-06 4.64906 0.0503511 4.52705 0.139371 4.4387L4.27464 0.172483Z" fill="black"/>
</svg>
