<svg width="14" height="10" viewBox="0 0 14 10" fill="none" xmlns="http://www.w3.org/2000/svg">
<path opacity="0.4" d="M8.80239 0.172483C8.71867 0.0689508 8.59666 0.00653124 8.46615 0.000496637C8.33563 -0.00563235 8.20859 0.0451912 8.11619 0.140519C8.02388 0.235846 7.97453 0.366816 7.98047 0.50146C7.98641 0.636201 8.04691 0.762083 8.14727 0.848354L11.4898 4.30063H0.44179C0.281207 4.30949 0.136337 4.40294 0.0584702 4.54805C-0.0194901 4.69307 -0.0194901 4.86931 0.0584702 5.0144C0.136339 5.15951 0.281202 5.25296 0.44179 5.26172H11.4898L8.14212 8.71014C8.05785 8.80122 8.01087 8.9222 8.01087 9.04808C8.01087 9.17395 8.05785 9.29501 8.14212 9.38601C8.22894 9.47587 8.34676 9.52632 8.46968 9.52632C8.59261 9.52632 8.71051 9.47587 8.79725 9.38601L12.9377 5.11448V5.11457C13.0267 5.02613 13.077 4.90412 13.077 4.77664C13.077 4.64906 13.0267 4.52705 12.9377 4.4387L8.80239 0.172483Z" fill="black"/>
</svg>
