<svg width="14" height="11" viewBox="0 0 14 11" fill="none" xmlns="http://www.w3.org/2000/svg">
<path d="M12.0779 0.0943676C10.3369 0.800637 2.87179 3.8297 0.809129 4.65532C-0.574224 5.18413 0.235533 5.67988 0.235533 5.67988C0.235533 5.67988 1.41634 6.07643 2.42851 6.37391C3.44067 6.67138 3.98051 6.34084 3.98051 6.34084L8.73764 3.201C10.4245 2.07737 10.0197 3.00273 9.61491 3.39927C8.73764 4.25864 7.28691 5.61361 6.07234 6.70431C5.53251 7.167 5.80243 7.56368 6.03859 7.76195C6.91586 8.48904 9.31124 9.97629 9.44627 10.0755C10.1591 10.5697 11.561 11.2813 11.7743 9.77802L12.6178 4.58918C12.8877 2.83752 13.1576 1.218 13.1914 0.755321C13.2925 -0.368314 12.0779 0.0943676 12.0779 0.0943676Z" fill="#9BDAC5"/>
</svg>
