<svg width="12" height="12" viewBox="0 0 12 12" fill="none" xmlns="http://www.w3.org/2000/svg">
<path d="M10.466 2.61584C8.7739 -8.64731e-05 5.31911 -0.777794 2.63989 0.848322C0.0311728 2.47444 -0.814897 6.00947 0.877243 8.6254L1.01825 8.8375L0.454208 10.9585L2.56938 10.3929L2.7809 10.5343C3.69748 11.0292 4.68456 11.312 5.67164 11.312C6.72923 11.312 7.78682 11.0292 8.70339 10.4636C11.3121 8.7668 12.0877 5.30246 10.466 2.61584ZM8.98542 8.05979C8.70339 8.484 8.35086 8.7668 7.85732 8.8375C7.5753 8.8375 7.22277 8.9789 5.81265 8.41329C4.61405 7.84769 3.62697 6.92858 2.92191 5.86807C2.49888 5.37317 2.28736 4.73686 2.21685 4.10055C2.21685 3.53495 2.42837 3.04004 2.7809 2.68654C2.92191 2.54514 3.06292 2.47444 3.20394 2.47444H3.55647C3.69748 2.47444 3.83849 2.47444 3.909 2.75724C4.05001 3.11074 4.40254 3.95915 4.40254 4.02985C4.47304 4.10055 4.47304 4.24195 4.40254 4.31266C4.47304 4.45406 4.40254 4.59546 4.33203 4.66616C4.26152 4.73686 4.19102 4.87826 4.12051 4.94896C3.9795 5.01966 3.909 5.16106 3.9795 5.30246C4.26152 5.72667 4.61405 6.15087 4.96658 6.50438C5.38962 6.85788 5.81265 7.14068 6.30619 7.35278C6.44721 7.42348 6.58822 7.42349 6.65872 7.28208C6.72923 7.14068 7.08176 6.78718 7.22277 6.64578C7.36378 6.50438 7.43429 6.50438 7.5753 6.57508L8.70339 7.14068C8.84441 7.21138 8.98542 7.28208 9.05592 7.35278C9.12643 7.56489 9.12643 7.84769 8.98542 8.05979Z" fill="#9BDAC5"/>
</svg>
