<svg width="12" height="14" viewBox="0 0 12 14" fill="none" xmlns="http://www.w3.org/2000/svg">
<g opacity="0.3">
<path fill-rule="evenodd" clip-rule="evenodd" d="M5.75233 0C3.91431 0 2.42203 1.49691 2.42203 3.34064C2.42203 5.18437 3.91431 6.68128 5.75233 6.68128C7.59035 6.68128 9.08263 5.18437 9.08263 3.34064C9.08263 1.49691 7.59035 0 5.75233 0ZM5.75233 0.607389C7.25611 0.607389 8.47712 1.83219 8.47712 3.34064C8.47712 4.84909 7.25611 6.07389 5.75233 6.07389C4.24855 6.07389 3.02754 4.84909 3.02754 3.34064C3.02754 1.83219 4.24855 0.607389 5.75233 0.607389Z" fill="black"/>
<path fill-rule="evenodd" clip-rule="evenodd" d="M11.5047 12.4515C11.5047 11.0821 10.9624 9.76894 9.99724 8.80076C9.03206 7.83258 7.72296 7.28867 6.35784 7.28867H5.14682C3.7817 7.28867 2.47259 7.83258 1.50741 8.80076C0.542234 9.76894 0 11.0821 0 12.4515V13.0589C0 13.5621 0.406599 13.9699 0.908263 13.9699H10.5964C11.0981 13.9699 11.5047 13.5621 11.5047 13.0589C11.5047 12.8842 11.5047 12.6786 11.5047 12.4515ZM10.8992 12.4515V13.0589C10.8992 13.2265 10.7635 13.3626 10.5964 13.3626H0.908263C0.741142 13.3626 0.605508 13.2265 0.605508 13.0589V12.4515C0.605508 11.2434 1.08386 10.0845 1.93551 9.23019C2.78716 8.37589 3.94247 7.89606 5.14682 7.89606H6.35784C7.56219 7.89606 8.7175 8.37589 9.56915 9.23019C10.4208 10.0845 10.8992 11.2434 10.8992 12.4515Z" fill="black"/>
</g>
</svg>
