<svg width="40" height="40" viewBox="0 0 40 40" fill="none" xmlns="http://www.w3.org/2000/svg">
<path d="M16.8157 11.4611C17.4987 11.4611 18.0524 12.0149 18.0524 12.6979V15.5838H20.9383C21.6213 15.5838 22.1751 16.1375 22.1751 16.8205C22.1751 17.5036 21.6213 18.0573 20.9383 18.0573H18.0524V20.9432C18.0524 21.6262 17.4987 22.1799 16.8157 22.1799C16.1326 22.1799 15.5789 21.6262 15.5789 20.9432V18.0573H12.693C12.01 18.0573 11.4563 17.5036 11.4563 16.8205C11.4563 16.1375 12.01 15.5838 12.693 15.5838H15.5789V12.6979C15.5789 12.0149 16.1326 11.4611 16.8157 11.4611Z" fill="white"/>
<path fill-rule="evenodd" clip-rule="evenodd" d="M8.89791 24.6445C12.9493 28.6958 19.3466 28.9713 23.717 25.471L32.2189 33.9729C32.7019 34.4559 33.485 34.4559 33.968 33.9729C34.451 33.4899 34.451 32.7068 33.968 32.2238L25.4661 23.7219C28.9665 19.3515 28.691 12.9541 24.6396 8.90279C20.2927 4.55584 13.2449 4.55584 8.89791 8.90279C4.55096 13.2497 4.55096 20.2975 8.89791 24.6445ZM10.647 10.6519C7.26602 14.0328 7.26602 19.5145 10.647 22.8954C14.0255 26.2739 19.5015 26.2764 22.8831 22.9028L22.8905 22.8954L22.898 22.888C26.2715 19.5064 26.269 14.0304 22.8905 10.6519C19.5096 7.27091 14.0279 7.27091 10.647 10.6519Z" fill="white"/>
</svg>
