<svg width="16" height="16" viewBox="0 0 16 16" fill="none" xmlns="http://www.w3.org/2000/svg">
<path d="M15.1534 14.2742L11.442 10.5628C12.4534 9.32588 12.9507 7.7475 12.831 6.15418C12.7113 4.56086 11.9837 3.0745 10.7989 2.00255C9.61399 0.930604 8.06243 0.355076 6.46512 0.395014C4.86781 0.434952 3.34695 1.0873 2.21712 2.21712C1.0873 3.34695 0.434952 4.86781 0.395014 6.46512C0.355076 8.06243 0.930604 9.61399 2.00255 10.7989C3.0745 11.9837 4.56086 12.7113 6.15418 12.831C7.7475 12.9507 9.32588 12.4534 10.5628 11.442L14.2742 15.1534C14.3915 15.2667 14.5486 15.3294 14.7116 15.3279C14.8746 15.3265 15.0306 15.2611 15.1459 15.1459C15.2611 15.0306 15.3265 14.8746 15.3279 14.7116C15.3294 14.5486 15.2667 14.3915 15.1534 14.2742ZM6.63073 11.6049C5.64693 11.6049 4.68521 11.3132 3.86721 10.7666C3.0492 10.2201 2.41165 9.4432 2.03516 8.53428C1.65867 7.62536 1.56017 6.62522 1.7521 5.66031C1.94403 4.69541 2.41778 3.80909 3.11343 3.11343C3.80909 2.41778 4.69541 1.94403 5.66031 1.7521C6.62522 1.56017 7.62536 1.65867 8.53428 2.03516C9.4432 2.41165 10.2201 3.0492 10.7666 3.86721C11.3132 4.68521 11.6049 5.64693 11.6049 6.63073C11.6033 7.94947 11.0787 9.21373 10.1462 10.1462C9.21373 11.0787 7.94947 11.6033 6.63073 11.6049Z" fill="#FE7F6C" stroke="#FE7F6C" stroke-width="0.786048"/>
</svg>
