<svg width="13" height="14" viewBox="0 0 13 14" fill="none" xmlns="http://www.w3.org/2000/svg">
<path d="M1.56836 0.322624C0.865861 1.07118 0.157245 2.08973 0 3.05359C0.0236971 5.07405 1.67055 7.2684 3.57468 9.29757C4.51769 10.3025 5.53845 11.3127 6.54569 12.0475C7.55292 12.7823 8.55453 13.2744 9.51078 13.1197C10.3547 13.022 11.3951 12.0757 12.0261 11.442C12.4422 10.9965 12.4105 10.1695 12.0261 9.74538L10.4222 8.03616C9.92674 7.59997 9.28427 7.62026 8.76505 7.89744L7.68791 8.74256C7.4174 8.84585 7.10989 8.5864 6.92445 8.44624C6.48921 8.11426 5.9889 7.5943 5.58691 7.16589C5.17792 6.73004 4.68297 6.2288 4.37365 5.78463C4.17038 5.50668 4.04319 5.20822 4.11324 4.9206C4.38283 4.52298 4.66894 4.12001 4.92997 3.72223C5.16574 3.16033 5.15806 2.43458 4.78793 2.02565L3.18998 0.329044C2.64063 -0.138223 2.10056 -0.0781736 1.56836 0.322624ZM2.65735 0.896538L4.24939 2.59947C4.39156 2.84306 4.33678 3.07852 4.26122 3.33739L3.50368 4.44116C3.15133 5.10395 3.4045 5.74926 3.76408 6.27017C4.139 6.80854 4.66031 7.31358 5.05428 7.73343C5.45712 8.16273 5.96458 8.71482 6.4806 9.10839C6.95917 9.46983 7.63429 9.74777 8.13772 9.39218C8.48054 9.1224 8.82418 8.8538 9.16751 8.58477C9.43346 8.47264 9.64907 8.47732 9.88955 8.61001L11.4875 10.3129C11.6034 10.5077 11.5812 10.6553 11.4994 10.8553C10.8333 11.3841 10.1505 12.1659 9.39245 12.3248C8.77362 12.4221 7.90676 12.0609 6.97184 11.3788C6.03421 10.6948 5.04104 9.71854 4.11329 8.72983C2.27073 6.76626 0.804174 4.59915 0.763504 3.07869C0.876079 2.46534 1.37145 1.72168 2.08921 0.909057C2.29875 0.740679 2.44685 0.78765 2.65735 0.896538Z" fill="black"/>
</svg>
