<svg width="13" height="11" viewBox="0 0 13 11" fill="none" xmlns="http://www.w3.org/2000/svg">
<path d="M12.4469 2.14555L8.07277 6.12204C7.58505 6.5643 6.92429 6.81267 6.23541 6.81267C5.54653 6.81267 4.88577 6.5643 4.39804 6.12204L0.0239024 2.14555C0.0166278 2.22018 0 2.28773 0 2.3619V8.03045C0.000825078 8.65663 0.274816 9.25696 0.761873 9.69973C1.24893 10.1425 1.90928 10.3916 2.59809 10.3923H9.87273C10.5615 10.3916 11.2219 10.1425 11.7089 9.69973C12.196 9.25696 12.47 8.65663 12.4708 8.03045V2.3619C12.4708 2.28773 12.4542 2.22018 12.4469 2.14555Z" fill="#4F645D"/>
<path d="M7.33803 5.45409L12.0842 1.13891C11.8543 0.792331 11.53 0.505464 11.1427 0.305974C10.7553 0.106485 10.3179 0.00110568 9.87273 0H2.59809C2.15289 0.00110568 1.71552 0.106485 1.32816 0.305974C0.940794 0.505464 0.616515 0.792331 0.386595 1.13891L5.13278 5.45409C5.42562 5.71925 5.8221 5.86812 6.23541 5.86812C6.64872 5.86812 7.04519 5.71925 7.33803 5.45409Z" fill="#4F645D"/>
</svg>
