<svg width="14" height="14" viewBox="0 0 14 14" fill="none" xmlns="http://www.w3.org/2000/svg">
<path fill-rule="evenodd" clip-rule="evenodd" d="M6.88826 1.14648V4.0474C6.88826 4.29077 6.88826 4.52782 6.91466 4.72298C6.94393 4.94281 7.01626 5.19365 7.22461 5.402C7.43297 5.61036 7.6838 5.68268 7.90421 5.71195C8.09936 5.73836 8.33585 5.73836 8.57922 5.73836H11.4801V9.18226C11.4801 10.8055 11.4801 11.6177 10.9756 12.1216C10.4716 12.6262 9.65945 12.6262 8.03623 12.6262H5.74029C4.11706 12.6262 3.30488 12.6262 2.80092 12.1216C2.29639 11.6177 2.29639 10.8055 2.29639 9.18226V4.59039C2.29639 2.96716 2.29639 2.15497 2.80092 1.65102C3.30488 1.14648 4.11706 1.14648 5.74029 1.14648H6.88826ZM8.03623 1.14935V4.0164C8.03623 4.3034 8.03737 4.46067 8.0523 4.56972V4.57374L8.05689 4.57432C8.16595 4.58924 8.32322 4.59039 8.61021 4.59039H11.4773C11.4715 4.35391 11.4526 4.19778 11.3929 4.05257C11.3056 3.84191 11.1398 3.67546 10.8074 3.34369L9.28292 1.81919C8.95116 1.48743 8.78528 1.32098 8.57405 1.23373C8.42883 1.17346 8.27271 1.15509 8.03623 1.14935ZM4.59232 7.46031C4.59232 7.30808 4.6528 7.16208 4.76044 7.05444C4.86808 6.9468 5.01408 6.88632 5.16631 6.88632H8.61021C8.76244 6.88632 8.90844 6.9468 9.01608 7.05444C9.12372 7.16208 9.18419 7.30808 9.18419 7.46031C9.18419 7.61254 9.12372 7.75853 9.01608 7.86618C8.90844 7.97382 8.76244 8.03429 8.61021 8.03429H5.16631C5.01408 8.03429 4.86808 7.97382 4.76044 7.86618C4.6528 7.75853 4.59232 7.61254 4.59232 7.46031ZM5.16631 9.18226C5.01408 9.18226 4.86808 9.24273 4.76044 9.35038C4.6528 9.45802 4.59232 9.60401 4.59232 9.75624C4.59232 9.90847 4.6528 10.0545 4.76044 10.1621C4.86808 10.2698 5.01408 10.3302 5.16631 10.3302H7.46224C7.61447 10.3302 7.76047 10.2698 7.86811 10.1621C7.97575 10.0545 8.03623 9.90847 8.03623 9.75624C8.03623 9.60401 7.97575 9.45802 7.86811 9.35038C7.76047 9.24273 7.61447 9.18226 7.46224 9.18226H5.16631Z" fill="#FD7E6B"/>
</svg>
