<svg width="52" height="40" viewBox="0 0 52 40" fill="none" xmlns="http://www.w3.org/2000/svg">
<path d="M0.000190663 39.5396V28.2267C0.000190663 24.9733 0.610203 21.5905 1.83023 18.0783C3.08722 14.5291 4.78786 11.1833 6.93214 8.04081C9.1134 4.86136 11.5534 2.181 14.2523 -0.000258441L23.5688 6.0444C21.3876 9.33477 19.5575 12.773 18.0787 16.3592C16.6369 19.9083 15.9344 23.8272 15.9714 28.1157V39.5396H0.000190663ZM28.1162 39.5396V28.2267C28.1162 24.9733 28.7262 21.5905 29.9462 18.0783C31.2032 14.5291 32.9039 11.1833 35.0481 8.04081C37.2294 4.86136 39.6694 2.181 42.3683 -0.000258441L51.6848 6.0444C49.5036 9.33477 47.6735 12.773 46.1947 16.3592C44.7529 19.9083 44.0504 23.8272 44.0874 28.1157V39.5396H28.1162Z" fill="#FD7E6B"/>
</svg>
